<svg width="27" height="27" viewBox="0 0 27 27" xmlns="http://www.w3.org/2000/svg">
    <path fill="#cacaca" d="M7.29167 26.25C6.62035 26.25 6.05986 26.0252 5.61021 25.5755C5.16056 25.1259 4.93573 24.5654 4.93573 23.8941V7.29167C4.93573 6.62035 5.16056 6.05986 5.61021 5.61021C6.05986 5.16056 6.62035 4.93573 7.29167 4.93573H23.8941C24.5654 4.93573 25.1259 5.16056 25.5755 5.61021C26.0252 6.05986 26.25 6.62035 26.25 7.29167V23.8941C26.25 24.5654 26.0252 25.1259 25.5755 25.5755C25.1259 26.0252 24.5654 26.25 23.8941 26.25H7.29167ZM7.29167 24.7917H14.8637V19.0987H6.39406V23.8941C6.39406 24.1558 6.47828 24.3709 6.64672 24.5394C6.81491 24.7076 7.0299 24.7917 7.29167 24.7917ZM16.322 24.7917H23.8941C24.1558 24.7917 24.3709 24.7076 24.5394 24.5394C24.7076 24.3709 24.7917 24.1558 24.7917 23.8941V19.0987H16.322V24.7917ZM0 20.7532V2.35594C0 1.68462 0.224826 1.12413 0.674479 0.674479C1.12413 0.224826 1.68462 0 2.35594 0H20.7532V1.45833H2.35594C2.09417 1.45833 1.87906 1.54243 1.71062 1.71062C1.54243 1.87906 1.45833 2.09417 1.45833 2.35594V20.7532H0ZM6.39406 17.6404H14.8637V11.919H6.39406V17.6404ZM16.322 17.6404H24.7917V11.919H16.322V17.6404ZM6.39406 10.4606H24.7917V7.29167C24.7917 7.0299 24.7076 6.81491 24.5394 6.64672C24.3709 6.47828 24.1558 6.39406 23.8941 6.39406H7.29167C7.0299 6.39406 6.81491 6.47828 6.64672 6.64672C6.47828 6.81491 6.39406 7.0299 6.39406 7.29167V10.4606Z" />
</svg>
