<svg width="32" height="32" viewBox="0 0 32 32" xmlns="http://www.w3.org/2000/svg">
    <path fill="#1c1c1c" d="M12.87,6h18.56c.32,0,.57-.44.57-1s-.26-1-.57-1H12.87c-.32,0-.57.44-.57,1s.26,1,.57,1ZM31.41,15H12.87c-.32,0-.57.44-.57,1s.26,1,.57,1h18.56c.32,0,.57-.44.57-1s-.28-1-.6-1h.01ZM31.41,26H12.87c-.32,0-.57.44-.57,1s.26,1,.57,1h18.56c.32,0,.57-.44.57-1s-.28-1-.6-1h.01ZM7.83,12H1.36c-.42,0-.77.34-.77.77v6.47c0,.42.34.77.77.77h6.47c.42,0,.77-.34.77-.77v-6.47c-.05-.42-.39-.77-.77-.77ZM6.84,18.29H2.31v-4.57h4.57v4.57h-.03ZM.84,9.14h7.49c.29,0,.57-.16.72-.48s.15-.64,0-.96L5.3.48c-.15-.26-.43-.48-.72-.48s-.57.16-.72.48L.11,7.75c-.15.26-.15.64,0,.96s.43.42.72.42h.01ZM4.61,2.29l2.55,5.14H2.02l2.59-5.14ZM4.59,22.86C2.08,22.86.02,24.91.02,27.43s2.06,4.57,4.57,4.57,4.57-2.06,4.57-4.57-2.06-4.57-4.57-4.57ZM4.59,30.29c-1.58,0-2.86-1.28-2.86-2.86s1.28-2.86,2.86-2.86,2.86,1.28,2.86,2.86-1.28,2.86-2.86,2.86Z"/>
</svg>
