<?xml version="1.0" encoding="UTF-8"?>
<svg id="Layer_1" data-name="Layer 1" xmlns="http://www.w3.org/2000/svg" viewBox="0 0 32 32">
  <defs>
    <style>
      .cls-1 {
        fill: #1c1c1c;
      }
    </style>
  </defs>
  <path class="cls-1" d="M15,0C6.75,0,0,6.75,0,15s6.75,15,15,15,15-6.75,15-15S23.25,0,15,0ZM15,28c-7.21,0-13-5.79-13-13S7.79,2,15,2s13,5.79,13,13-5.79,13-13,13ZM15,12.5c-1.38,0-2.5,1.12-2.5,2.5s1.12,2.5,2.5,2.5,2.5-1.13,2.5-2.5-1.13-2.5-2.5-2.5ZM15,19.5c-2.08,0-3.92-.42-5.53-1.25s-2.77-1.92-3.47-3.25c.7-1.31,1.86-2.39,3.47-3.23s3.46-1.27,5.53-1.27,3.88.42,5.49,1.27,2.78,1.92,3.51,3.23c-.72,1.33-1.89,2.41-3.51,3.25-1.61.83-3.44,1.25-5.49,1.25ZM15.03,21c2.32,0,4.46-.53,6.4-1.59,1.94-1.06,3.47-2.53,4.56-4.41-1.1-1.84-2.62-3.3-4.56-4.38-1.94-1.08-4.08-1.62-6.4-1.62s-4.52.54-6.47,1.62-3.47,2.54-4.56,4.38c1.1,1.88,2.62,3.35,4.56,4.41s4.1,1.59,6.47,1.59ZM25.71,25.73c.2-.2.32-.33.45-.48q.25-.29.34-.18l5.47,5.46s.02.18-.08.34c-.1.17-.27.38-.46.57s-.4.36-.57.46c-.17.1-.29.13-.34.08l-5.47-5.46q-.08-.11.16-.32c.15-.14.31-.28.5-.47Z"/>
</svg>