<svg width="32" height="32" viewBox="0 0 32 32" xmlns="http://www.w3.org/2000/svg">
    <path fill="#1c1c1c" d="M30.77,4.77c-.39-.41-.85-.73-1.36-.95-.51-.22-1.06-.33-1.61-.33s-1.1.11-1.61.33c-.51.22-.97.54-1.36.95-.32.33-.58.7-.78,1.12l-4.39-1.24c.06-.88-.15-1.77-.59-2.53-.44-.76-1.09-1.36-1.87-1.73-.78-.37-1.65-.48-2.49-.32-.84.16-1.62.58-2.22,1.21-.66.68-1.08,1.58-1.2,2.53-.12.96.07,1.93.54,2.76l-5.09,4.75c-.81-.62-1.81-.92-2.81-.84-1,.08-1.95.53-2.66,1.26C.47,12.55.02,13.65,0,14.79c-.02,1.15.4,2.26,1.16,3.09.76.83,1.81,1.32,2.91,1.35,1.11.04,2.18-.38,2.99-1.16l10.18,7.75c-.32.72-.44,1.53-.36,2.32.09.79.38,1.54.85,2.17.47.63,1.1,1.12,1.82,1.4.72.29,1.5.36,2.25.22.76-.14,1.46-.49,2.04-1.02.58-.53,1-1.21,1.23-1.97.23-.76.25-1.57.07-2.35-.18-.77-.57-1.48-1.11-2.05-.24-.25-.51-.47-.81-.65l3.99-11.72c.19.03.38.04.58.04.83,0,1.64-.26,2.34-.74.69-.48,1.23-1.16,1.55-1.96.32-.8.4-1.67.24-2.52-.16-.85-.56-1.62-1.15-2.23h0ZM13.67,2.51c.35-.37.8-.62,1.29-.72.49-.1,1-.05,1.46.15.46.2.86.53,1.13.96.28.43.43.94.43,1.45s-.15,1.02-.43,1.45c-.28.43-.67.77-1.13.96-.46.2-.97.25-1.46.15-.49-.1-.94-.35-1.29-.72-.23-.24-.42-.53-.55-.85-.13-.32-.19-.66-.19-1,0-.34.07-.68.19-1,.13-.32.31-.61.55-.85h0ZM2.45,16.69c-.35-.37-.59-.83-.69-1.34-.1-.51-.05-1.03.14-1.51.19-.48.51-.89.93-1.17.41-.29.9-.44,1.4-.44s.99.15,1.4.44c.42.29.74.7.93,1.17.19.48.24,1,.14,1.51-.1.51-.34.97-.69,1.34-.47.49-1.11.76-1.78.76s-1.31-.28-1.78-.76h0ZM22.85,29.49c-.35.37-.8.62-1.29.72-.49.1-1,.05-1.46-.15-.46-.2-.86-.53-1.13-.96s-.43-.94-.43-1.45.15-1.02.43-1.45c.28-.43.67-.77,1.13-.96s.97-.25,1.46-.15c.49.1.94.35,1.29.72.23.24.42.53.55.85.13.32.19.66.19,1,0,.34-.06.68-.19,1-.13.32-.31.61-.55.85h0ZM21.64,23.32c-.61-.09-1.23-.04-1.82.15-.59.19-1.13.51-1.58.94l-10.18-7.74c.28-.64.41-1.34.38-2.04-.03-.7-.23-1.39-.57-1.99l5.09-4.75c.49.38,1.06.64,1.66.77.6.13,1.22.12,1.82-.03.6-.15,1.15-.43,1.63-.82.48-.39.87-.89,1.15-1.46l4.39,1.24c-.04.62.05,1.24.26,1.82.21.58.54,1.11.96,1.55.24.25.52.47.81.66l-3.99,11.72ZM29.58,9.7c-.35.37-.8.62-1.29.72-.49.1-1,.05-1.46-.15-.46-.2-.86-.53-1.13-.96-.28-.43-.43-.94-.43-1.45s.15-1.02.43-1.45c.28-.43.67-.77,1.13-.96.46-.2.97-.25,1.46-.15.49.1.94.35,1.29.72.23.24.42.53.55.85s.19.66.19,1c0,.34-.06.68-.19,1-.13.32-.31.61-.55.85h0Z"/>
</svg>
