<svg width="32" height="32" viewBox="0 0 32 32" xmlns="http://www.w3.org/2000/svg">
    <path fill="#1c1c1c" d="M25.36,5.22L5.13,25.45c-.35.35-.31.93.09,1.33s.99.42,1.33.09L26.79,6.61c.35-.35.31-.93-.09-1.33s-1.01-.4-1.36-.05h.01ZM28.88,18.1h-9.69c-.63,0-1.15.51-1.15,1.15v9.69c0,.63.51,1.15,1.15,1.15h9.69c.63,0,1.15-.51,1.15-1.15v-9.69c-.07-.63-.58-1.15-1.15-1.15ZM27.96,28.1h-7.93v-8h8v8h-.07ZM7.89.98C4.05.98.89,4.12.89,7.98s3.16,7,7,7,7-3.16,7-7S11.74.98,7.89.98ZM7.89,12.98c-2.76,0-5-2.24-5-5S5.13,2.98,7.89,2.98s5,2.24,5,5-2.24,5-5,5ZM4.89,24.1c-1.65,0-3,1.35-3,3s1.35,3,3,3,3-1.35,3-3-1.35-3-3-3ZM27.03,1.98c-1.65,0-3,1.35-3,3s1.35,3,3,3,3-1.35,3-3-1.35-3-3-3Z"/>
</svg>
