<svg width="32" height="32" viewBox="0 0 32 32" xmlns="http://www.w3.org/2000/svg">
    <path fill="#1c1c1c" d="M8,4c-2.2,0-4,1.79-4,4s1.8,4,4,4,4-1.8,4-4-1.8-4-4-4ZM8,10c-1.11,0-2-.9-2-2s.89-2,2-2,2,.89,2,2-.9,2-2,2ZM24,20c-2.2,0-4,1.79-4,4s1.8,4,4,4,4-1.8,4-4-1.8-4-4-4ZM24,26c-1.11,0-2-.9-2-2s.89-2,2-2,2,.89,2,2-.9,2-2,2ZM12,18c-2.75,0-5,2.24-5,5s2.25,5,5,5,5-2.25,5-5-2.25-5-5-5ZM15,23c0,1.66-1.34,3-3,3s-3-1.34-3-3M20,4c-2.75,0-5,2.24-5,5s2.25,5,5,5,5-2.25,5-5-2.25-5-5-5ZM17,9c0-1.66,1.34-3,3-3s3,1.34,3,3M7,10.91v12.61c0,.49.44.88,1,.88s1-.4,1-.88v-12.64c-.01-.49-.45-.88-1.02-.88s-1,.43-1,.93h0v-.02ZM15,8.71v14.61c0,.49.44.88,1,.88s1-.4,1-.88v-14.64c-.01-.49-.45-.88-1.02-.88s-1,.43-1,.93h0v-.02ZM23,8.17v12.61c0,.49.44.88,1,.88s1-.4,1-.88v-12.64c-.01-.49-.45-.88-1.02-.88s-1,.43-1,.93h0v-.02ZM25,9c0,2.76-2.24,5-5,5s-5-2.24-5-5M7,23c0-2.76,2.24-5,5-5s5,2.24,5,5"/>
</svg>
