<svg width="28" height="28" viewBox="0 0 28 28" fill="none" xmlns="http://www.w3.org/2000/svg">
<path id="Vector" d="M19.4265 14.2468L18.3943 13.1979L23.3472 9.37818L14.9618 2.88859L11.0297 5.90625L9.99797 4.85734L14.9618 1.02083L25.7312 9.37818L19.4265 14.2468ZM22.5816 17.3935L21.5327 16.3446L24.5587 14.0226L25.7312 14.9479L22.5816 17.3935ZM26.8417 27.8655L19.1013 20.125L14.9618 23.3053L4.19234 14.9479L5.36484 14.0226L14.9618 21.4375L18.0243 19.0564L15.9461 16.9867L14.9618 17.7355L4.19234 9.37818L6.51729 7.54141L0 1.04052L1.04016 0L27.8735 26.8333L26.8417 27.8655Z" fill="black"/>
</svg>
