<svg width="24" height="12" viewBox="0 0 24 12" fill="none" xmlns="http://www.w3.org/2000/svg">
<path id="Vector" d="M5.32839 1.62677V0.168437H23.3333V1.62677H5.32839ZM5.32839 6.5625V5.10417H23.3333V6.5625H5.32839ZM5.32839 11.4982V10.0399H23.3333V11.4982H5.32839ZM0.897604 1.79484C0.643125 1.79484 0.429965 1.70613 0.258125 1.5287C0.0860417 1.35127 0 1.13154 0 0.86953C0 0.623072 0.0860417 0.416597 0.258125 0.250104C0.429965 0.0833675 0.643125 0 0.897604 0C1.15184 0 1.36488 0.0833675 1.53672 0.250104C1.7088 0.416597 1.79484 0.623072 1.79484 0.86953C1.79484 1.13154 1.7088 1.35127 1.53672 1.5287C1.36488 1.70613 1.15184 1.79484 0.897604 1.79484ZM0.897604 6.70287C0.643125 6.70287 0.429965 6.6195 0.258125 6.45276C0.0860417 6.28602 0 6.07955 0 5.83333C0 5.5509 0.0860417 5.32608 0.258125 5.15885C0.429965 4.99163 0.643125 4.90802 0.897604 4.90802C1.15184 4.90802 1.36488 4.99163 1.53672 5.15885C1.7088 5.32608 1.79484 5.5509 1.79484 5.83333C1.79484 6.07955 1.7088 6.28602 1.53672 6.45276C1.36488 6.6195 1.15184 6.70287 0.897604 6.70287ZM0.897604 11.6667C0.643125 11.6667 0.429965 11.578 0.258125 11.4005C0.0860417 11.2231 0 11.0034 0 10.7414C0 10.4949 0.0860417 10.2884 0.258125 10.1219C0.429965 9.95519 0.643125 9.87182 0.897604 9.87182C1.15184 9.87182 1.36488 9.95519 1.53672 10.1219C1.7088 10.2884 1.79484 10.4949 1.79484 10.7414C1.79484 11.0034 1.7088 11.2231 1.53672 11.4005C1.36488 11.578 1.15184 11.6667 0.897604 11.6667Z" fill="black"/>
</svg>
