<svg width="26" height="27" viewBox="0 0 26 27" fill="none" xmlns="http://www.w3.org/2000/svg">
<path id="Vector" d="M10.0286 26.25L9.50141 22.0321C9.03596 21.8919 8.53259 21.6712 7.9913 21.3701C7.45002 21.0691 6.98967 20.7467 6.61026 20.4028L2.72016 22.0573L0 17.3177L3.36255 14.7824C3.31953 14.5189 3.28405 14.2474 3.25609 13.9679C3.2279 13.6884 3.2138 13.4168 3.2138 13.1531C3.2138 12.9081 3.2279 12.6506 3.25609 12.3805C3.28405 12.1102 3.31953 11.8059 3.36255 11.4676L0 8.93229L2.72016 4.24885L6.58219 5.87526C7.01774 5.51262 7.48891 5.18547 7.99568 4.8938C8.50221 4.60213 8.99476 4.37682 9.47333 4.21786L10.0286 0H15.4696L15.9968 4.24594C16.5559 4.44233 17.0499 4.66764 17.4789 4.92187C17.9078 5.17611 18.3496 5.49391 18.8041 5.87526L22.7781 4.24885L25.4982 8.93229L22.0234 11.5518C22.1038 11.8527 22.1488 12.129 22.1583 12.3805C22.1675 12.6318 22.1721 12.88 22.1721 13.125C22.1721 13.3513 22.1628 13.5901 22.1441 13.8414C22.1253 14.093 22.0823 14.3973 22.015 14.7543L25.4337 17.3177L22.7135 22.0573L18.8041 20.3747C18.3496 20.7561 17.8924 21.0832 17.4326 21.3562C16.9727 21.6291 16.4941 21.8451 15.9968 22.0041L15.4696 26.25H10.0286ZM11.2908 24.7917H14.1429L14.6814 20.8429C15.4162 20.6484 16.0775 20.3815 16.6655 20.0422C17.2537 19.7029 17.8524 19.2378 18.4618 18.647L22.0992 20.1979L23.5492 17.7187L20.3576 15.3209C20.4791 14.9057 20.5596 14.5239 20.599 14.1754C20.6381 13.8266 20.6577 13.4765 20.6577 13.125C20.6577 12.7548 20.6381 12.4047 20.599 12.0746C20.5596 11.7448 20.4791 11.3817 20.3576 10.9853L23.6053 8.53125L22.1554 6.05208L18.4337 7.61141C17.9926 7.12724 17.4125 6.67333 16.6935 6.24969C15.9748 5.82628 15.2948 5.54543 14.6533 5.40714L14.2074 1.45833H11.2992L10.8449 5.37906C10.1101 5.53608 9.43469 5.78897 8.81854 6.13776C8.20264 6.4863 7.5899 6.96537 6.98031 7.57495L3.34286 6.05208L1.89292 8.53125L5.05641 10.8927C4.93488 11.2198 4.84981 11.575 4.8012 11.9583C4.75259 12.3416 4.72828 12.7399 4.72828 13.1531C4.72828 13.5232 4.75259 13.8906 4.8012 14.2552C4.84981 14.6198 4.92552 14.975 5.02833 15.3209L1.89292 17.7187L3.34286 20.1979L6.95224 18.6667C7.52439 19.2444 8.11842 19.7077 8.73432 20.0565C9.35047 20.405 10.0446 20.6765 10.8168 20.8709L11.2908 24.7917ZM12.7097 16.7708C13.7269 16.7708 14.5889 16.4174 15.2957 15.7106C16.0023 15.0041 16.3556 14.1422 16.3556 13.125C16.3556 12.1078 16.0023 11.2459 15.2957 10.5394C14.5889 9.83257 13.7269 9.47917 12.7097 9.47917C11.6872 9.47917 10.8239 9.83257 10.1197 10.5394C9.41585 11.2459 9.06391 12.1078 9.06391 13.125C9.06391 14.1422 9.41585 15.0041 10.1197 15.7106C10.8239 16.4174 11.6872 16.7708 12.7097 16.7708Z" fill="black"/>
</svg>
