<svg width="26" height="23" viewBox="0 0 26 23" fill="none" xmlns="http://www.w3.org/2000/svg">
<path id="Vector" d="M1.18684 22.1554C0.95983 22.1554 0.758945 22.1014 0.584188 21.9935C0.409188 21.8856 0.273198 21.7433 0.176219 21.5666C0.0702469 21.3925 0.0119135 21.2042 0.00121901 21.0015C-0.00923237 20.7985 0.047521 20.594 0.171479 20.3879L11.6511 0.589531C11.7751 0.38342 11.9246 0.233577 12.0996 0.140001C12.2743 0.0466676 12.4645 0 12.6701 0C12.8758 0 13.0659 0.0466676 13.2407 0.140001C13.4157 0.233577 13.5652 0.38342 13.6891 0.589531L25.1688 20.3879C25.2927 20.594 25.3495 20.7985 25.339 21.0015C25.3283 21.2042 25.27 21.3925 25.164 21.5666C25.0671 21.7433 24.9311 21.8856 24.7561 21.9935C24.5813 22.1014 24.3804 22.1554 24.1534 22.1554H1.18684ZM1.65971 20.697H23.6805L12.6701 1.7387L1.65971 20.697ZM12.6701 18.678C12.9244 18.678 13.1375 18.5919 13.3096 18.4198C13.4817 18.2478 13.5677 18.0346 13.5677 17.7804C13.5677 17.5261 13.4817 17.313 13.3096 17.1409C13.1375 16.9688 12.9244 16.8828 12.6701 16.8828C12.4159 16.8828 12.2027 16.9688 12.0306 17.1409C11.8586 17.313 11.7725 17.5261 11.7725 17.7804C11.7725 18.0346 11.8586 18.2478 12.0306 18.4198C12.2027 18.5919 12.4159 18.678 12.6701 18.678ZM12.6712 15.4244C12.8781 15.4244 13.0511 15.3545 13.1904 15.2148C13.3297 15.075 13.3993 14.9019 13.3993 14.6953V8.86193C13.3993 8.65533 13.3293 8.48215 13.1893 8.3424C13.0493 8.20264 12.8759 8.13276 12.669 8.13276C12.4622 8.13276 12.2891 8.20264 12.1499 8.3424C12.0106 8.48215 11.941 8.65533 11.941 8.86193V14.6953C11.941 14.9019 12.011 15.075 12.151 15.2148C12.291 15.3545 12.4644 15.4244 12.6712 15.4244Z" fill="black"/>
</svg>
