<?xml version="1.0" encoding="UTF-8"?>
<svg xmlns="http://www.w3.org/2000/svg" xmlns:xlink="http://www.w3.org/1999/xlink" viewBox="0 0 548.98 330.86">
  <defs>
    <style>
      .cls-1, .cls-2 {
        fill: #231f20;
      }

      .cls-2 {
        fill-rule: evenodd;
      }

      .cls-3 {
        clip-path: url(#clippath);
      }
    </style>
    <clipPath id="clippath">
      <rect class="cls-1" x="131.51" y="135.38" width=".02" height=".02"/>
    </clipPath>
  </defs>
  <g id="Text">
    <rect class="cls-1" x="75.86" y="75.86" width="4.2" height="179.13"/>
    <g>
      <path class="cls-1" d="M109.7,168.62c5.51,0,9.75,1.4,12.72,4.21,2.97,2.8,4.46,7.08,4.46,12.82,0,3-.33,5.67-1,7.99-.67,2.32-1.7,4.27-3.1,5.86-1.4,1.59-3.19,2.8-5.36,3.63-2.17.83-4.74,1.25-7.71,1.25h-12.27v-35.75h12.27ZM110.1,200.36c.53,0,1.2-.04,2-.13.8-.08,1.65-.28,2.55-.6.9-.32,1.79-.78,2.68-1.38.88-.6,1.68-1.42,2.38-2.45.7-1.03,1.28-2.33,1.73-3.88s.68-3.43.68-5.63-.21-4.05-.63-5.73c-.42-1.69-1.1-3.12-2.05-4.31-.95-1.18-2.18-2.09-3.68-2.7-1.5-.62-3.35-.93-5.56-.93h-8.01v27.74h7.91Z"/>
      <path class="cls-1" d="M149.97,202.72c-1.94,1.47-4.37,2.2-7.31,2.2-2.07,0-3.86-.33-5.38-1-1.52-.67-2.8-1.6-3.83-2.8-1.04-1.2-1.81-2.64-2.33-4.31-.52-1.67-.81-3.49-.88-5.46,0-1.97.3-3.77.9-5.41.6-1.63,1.44-3.05,2.53-4.26,1.08-1.2,2.37-2.13,3.85-2.8,1.48-.67,3.11-1,4.88-1,2.3,0,4.21.48,5.73,1.43,1.52.95,2.74,2.16,3.65,3.63.92,1.47,1.55,3.07,1.9,4.81.35,1.74.49,3.39.43,4.96h-19.38c-.03,1.14.1,2.21.4,3.23.3,1.02.78,1.92,1.45,2.7.67.78,1.52,1.41,2.55,1.88,1.03.47,2.25.7,3.65.7,1.8,0,3.28-.42,4.43-1.25,1.15-.83,1.91-2.1,2.28-3.8h4.21c-.57,2.9-1.82,5.09-3.75,6.56ZM148.95,186.09c-.38-.9-.9-1.68-1.55-2.33-.65-.65-1.42-1.17-2.3-1.55-.88-.38-1.86-.58-2.93-.58s-2.09.19-2.98.58c-.88.38-1.64.91-2.28,1.58-.63.67-1.14,1.44-1.5,2.33-.37.88-.58,1.83-.65,2.83h14.87c-.07-1-.29-1.95-.68-2.85Z"/>
      <path class="cls-1" d="M162.54,178.48v3.5h.1c.7-1.43,1.8-2.48,3.3-3.13,1.5-.65,3.15-.98,4.96-.98,2,0,3.75.37,5.23,1.1,1.48.73,2.72,1.73,3.71,2.98.98,1.25,1.73,2.7,2.23,4.33.5,1.64.75,3.37.75,5.21s-.24,3.57-.73,5.21c-.48,1.64-1.22,3.06-2.2,4.28-.98,1.22-2.22,2.18-3.7,2.88-1.49.7-3.21,1.05-5.18,1.05-.63,0-1.34-.07-2.13-.2-.78-.13-1.56-.35-2.33-.65-.77-.3-1.49-.71-2.18-1.23-.68-.52-1.26-1.16-1.73-1.93h-.1v13.32h-4.26v-35.75h4.26ZM177.84,187.67c-.32-1.15-.8-2.18-1.45-3.08s-1.49-1.62-2.5-2.15c-1.02-.53-2.21-.8-3.58-.8-1.44,0-2.65.28-3.65.85-1,.57-1.82,1.31-2.45,2.23-.63.92-1.09,1.96-1.38,3.13-.28,1.17-.43,2.35-.43,3.56,0,1.27.15,2.5.45,3.68s.78,2.23,1.43,3.13,1.49,1.63,2.53,2.18c1.03.55,2.29.83,3.75.83s2.7-.28,3.68-.85c.98-.57,1.78-1.32,2.38-2.25.6-.93,1.03-2,1.3-3.2.27-1.2.4-2.44.4-3.71,0-1.2-.16-2.38-.48-3.53Z"/>
      <path class="cls-1" d="M210.07,204.27c-.73.43-1.75.65-3.05.65-1.1,0-1.98-.31-2.63-.93-.65-.62-.98-1.63-.98-3.03-1.17,1.4-2.53,2.41-4.08,3.03-1.55.62-3.23.93-5.03.93-1.17,0-2.28-.13-3.33-.4-1.05-.27-1.96-.68-2.73-1.25-.77-.57-1.38-1.31-1.83-2.23-.45-.92-.68-2.03-.68-3.33,0-1.47.25-2.67.75-3.6.5-.93,1.16-1.69,1.98-2.28.82-.58,1.75-1.03,2.8-1.33,1.05-.3,2.13-.55,3.23-.75,1.17-.23,2.28-.41,3.33-.53,1.05-.12,1.98-.28,2.78-.5.8-.22,1.43-.53,1.9-.95.47-.42.7-1.03.7-1.83,0-.93-.18-1.68-.53-2.25-.35-.57-.8-1-1.35-1.3-.55-.3-1.17-.5-1.85-.6-.68-.1-1.36-.15-2.03-.15-1.8,0-3.3.34-4.51,1.03-1.2.68-1.85,1.98-1.95,3.88h-4.26c.07-1.6.4-2.95,1-4.05.6-1.1,1.4-1.99,2.4-2.68,1-.68,2.14-1.18,3.43-1.48,1.28-.3,2.66-.45,4.13-.45,1.17,0,2.33.08,3.48.25,1.15.17,2.19.51,3.13,1.02.93.52,1.69,1.24,2.25,2.17.57.93.85,2.15.85,3.65v13.29c0,1,.06,1.73.18,2.2.12.47.51.7,1.18.7.37,0,.8-.07,1.3-.2v3.3ZM203.16,191c-.53.4-1.24.69-2.1.87-.87.18-1.78.33-2.73.45s-1.91.25-2.88.4c-.97.15-1.84.39-2.6.72-.77.33-1.39.81-1.88,1.42-.48.62-.73,1.45-.73,2.52,0,.7.14,1.29.43,1.77.28.48.65.87,1.1,1.17s.98.51,1.58.65c.6.13,1.23.2,1.9.2,1.4,0,2.6-.19,3.6-.57,1-.38,1.82-.86,2.45-1.44.63-.58,1.1-1.21,1.4-1.89s.45-1.32.45-1.92v-4.33Z"/>
      <path class="cls-1" d="M217.53,178.48v5.46h.1c1.03-2.1,2.3-3.66,3.81-4.66,1.5-1,3.4-1.47,5.71-1.4v4.51c-1.7,0-3.15.23-4.36.7-1.2.47-2.17,1.15-2.9,2.05-.73.9-1.27,2-1.6,3.28-.33,1.29-.5,2.76-.5,4.43v11.52h-4.26v-25.88h4.01Z"/>
      <path class="cls-1" d="M242.5,178.48v3.75h-5.16v16.07c0,.5.04.9.12,1.2.08.3.24.53.48.7.23.17.56.28.98.33.42.05.96.08,1.63.08h1.95v3.75h-3.25c-1.1,0-2.04-.08-2.83-.23-.78-.15-1.42-.42-1.9-.83-.48-.4-.84-.97-1.08-1.7-.23-.73-.35-1.7-.35-2.9v-16.47h-4.41v-3.75h4.41v-7.76h4.26v7.76h5.16Z"/>
      <path class="cls-1" d="M250.3,178.48v3.81h.1c1.94-2.94,4.72-4.41,8.36-4.41,1.6,0,3.05.33,4.36,1,1.3.67,2.22,1.8,2.75,3.41.87-1.4,2.01-2.49,3.43-3.25,1.42-.77,2.98-1.15,4.68-1.15,1.3,0,2.48.14,3.53.43,1.05.28,1.95.73,2.7,1.33.75.6,1.33,1.38,1.75,2.33.42.95.63,2.1.63,3.43v18.98h-4.26v-16.97c0-.8-.07-1.55-.2-2.25-.13-.7-.38-1.31-.75-1.83-.37-.52-.88-.93-1.53-1.23-.65-.3-1.49-.45-2.53-.45-2.1,0-3.75.6-4.96,1.8-1.2,1.2-1.8,2.8-1.8,4.81v16.12h-4.26v-16.97c0-.83-.08-1.6-.23-2.3-.15-.7-.41-1.31-.78-1.83-.37-.52-.86-.92-1.48-1.2-.62-.28-1.41-.43-2.38-.43-1.24,0-2.3.25-3.18.75-.88.5-1.6,1.1-2.15,1.8s-.95,1.43-1.2,2.18-.38,1.38-.38,1.88v16.12h-4.26v-25.88h4.01Z"/>
      <path class="cls-1" d="M306.66,202.72c-1.94,1.47-4.37,2.2-7.31,2.2-2.07,0-3.86-.33-5.38-1-1.52-.67-2.8-1.6-3.83-2.8-1.04-1.2-1.81-2.64-2.33-4.31-.52-1.67-.81-3.49-.88-5.46,0-1.97.3-3.77.9-5.41.6-1.63,1.44-3.05,2.53-4.26,1.08-1.2,2.37-2.13,3.85-2.8,1.48-.67,3.11-1,4.88-1,2.3,0,4.21.48,5.73,1.43,1.52.95,2.74,2.16,3.65,3.63.92,1.47,1.55,3.07,1.9,4.81.35,1.74.49,3.39.43,4.96h-19.38c-.03,1.14.1,2.21.4,3.23.3,1.02.78,1.92,1.45,2.7.67.78,1.52,1.41,2.55,1.88,1.03.47,2.25.7,3.65.7,1.8,0,3.28-.42,4.43-1.25,1.15-.83,1.91-2.1,2.28-3.8h4.21c-.57,2.9-1.82,5.09-3.75,6.56ZM305.64,186.09c-.38-.9-.9-1.68-1.55-2.33-.65-.65-1.42-1.17-2.3-1.55-.88-.38-1.86-.58-2.93-.58s-2.09.19-2.98.58c-.88.38-1.64.91-2.28,1.58-.63.67-1.14,1.44-1.5,2.33-.37.88-.58,1.83-.65,2.83h14.87c-.07-1-.29-1.95-.68-2.85Z"/>
      <path class="cls-1" d="M318.91,178.48v4.11h.1c1.77-3.14,4.57-4.71,8.41-4.71,1.7,0,3.12.23,4.26.7,1.13.47,2.05,1.12,2.75,1.95.7.83,1.19,1.83,1.48,2.98.28,1.15.43,2.43.43,3.83v17.02h-4.26v-17.52c0-1.6-.47-2.87-1.4-3.8-.93-.93-2.22-1.4-3.85-1.4-1.3,0-2.43.2-3.38.6-.95.4-1.74.97-2.38,1.7-.63.73-1.11,1.59-1.43,2.58-.32.98-.48,2.06-.48,3.23v14.62h-4.26v-25.88h4.01Z"/>
      <path class="cls-1" d="M352.88,178.48v3.75h-5.16v16.07c0,.5.04.9.12,1.2.08.3.24.53.48.7.23.17.56.28.98.33.42.05.96.08,1.63.08h1.95v3.75h-3.25c-1.1,0-2.04-.08-2.83-.23-.78-.15-1.42-.42-1.9-.83-.48-.4-.84-.97-1.08-1.7-.23-.73-.35-1.7-.35-2.9v-16.47h-4.41v-3.75h4.41v-7.76h4.26v7.76h5.16Z"/>
      <path class="cls-1" d="M368.9,182.24v-3.75h4.36v-3.85c0-2.1.61-3.7,1.83-4.78,1.22-1.08,3-1.63,5.33-1.63.4,0,.86.03,1.38.1.52.07.98.17,1.38.3v3.71c-.37-.13-.77-.23-1.2-.28-.43-.05-.83-.08-1.2-.08-1.04,0-1.84.2-2.4.6-.57.4-.85,1.17-.85,2.3v3.6h5.01v3.75h-5.01v22.13h-4.26v-22.13h-4.36Z"/>
      <path class="cls-1" d="M384.53,186.12c.53-1.65,1.33-3.09,2.4-4.31,1.07-1.22,2.39-2.18,3.96-2.88,1.57-.7,3.37-1.05,5.41-1.05s3.88.35,5.43,1.05c1.55.7,2.86,1.66,3.93,2.88,1.07,1.22,1.87,2.65,2.4,4.31.53,1.65.8,3.43.8,5.33s-.27,3.67-.8,5.31c-.53,1.64-1.34,3.06-2.4,4.28-1.07,1.22-2.38,2.17-3.93,2.85-1.55.68-3.36,1.03-5.43,1.03s-3.84-.34-5.41-1.03c-1.57-.68-2.89-1.63-3.96-2.85-1.07-1.22-1.87-2.65-2.4-4.28-.53-1.63-.8-3.4-.8-5.31s.27-3.68.8-5.33ZM388.86,195.63c.42,1.22.99,2.24,1.73,3.05.73.82,1.59,1.44,2.58,1.88.98.43,2.03.65,3.13.65s2.14-.22,3.13-.65c.98-.43,1.84-1.06,2.58-1.88.73-.82,1.31-1.83,1.73-3.05.42-1.22.63-2.61.63-4.18s-.21-2.96-.63-4.18c-.42-1.22-.99-2.24-1.73-3.08-.73-.83-1.59-1.47-2.58-1.9-.99-.43-2.03-.65-3.13-.65s-2.15.22-3.13.65c-.98.43-1.84,1.07-2.58,1.9-.73.83-1.31,1.86-1.73,3.08-.42,1.22-.63,2.61-.63,4.18s.21,2.96.63,4.18Z"/>
      <path class="cls-1" d="M417.22,178.48v5.46h.1c1.03-2.1,2.3-3.66,3.81-4.66,1.5-1,3.4-1.47,5.71-1.4v4.51c-1.7,0-3.15.23-4.36.7-1.2.47-2.17,1.15-2.9,2.05-.73.9-1.27,2-1.6,3.28-.33,1.29-.5,2.76-.5,4.43v11.52h-4.26v-25.88h4.01Z"/>
      <path class="cls-1" d="M110.4,218.7c.77,0,1.59,0,2.48.03.88.02,1.76.07,2.63.15.87.08,1.68.21,2.43.38.75.17,1.39.42,1.93.75,1.17.7,2.16,1.67,2.98,2.9.82,1.24,1.23,2.75,1.23,4.56,0,1.9-.46,3.55-1.38,4.93-.92,1.39-2.23,2.41-3.93,3.08v.1c2.2.47,3.89,1.47,5.06,3,1.17,1.54,1.75,3.4,1.75,5.61,0,1.3-.23,2.57-.7,3.8-.47,1.24-1.16,2.33-2.08,3.28-.92.95-2.05,1.72-3.4,2.3-1.35.58-2.91.88-4.68.88h-17.27v-35.75h12.97ZM111.7,234.07c2.7,0,4.65-.48,5.83-1.43,1.18-.95,1.78-2.38,1.78-4.28,0-1.27-.2-2.27-.6-3-.4-.73-.95-1.3-1.65-1.7-.7-.4-1.51-.66-2.43-.78-.92-.12-1.89-.17-2.93-.17h-9.51v11.37h9.51ZM114.11,250.44c2.1,0,3.75-.57,4.93-1.7,1.18-1.13,1.78-2.7,1.78-4.71,0-1.17-.22-2.14-.65-2.9-.43-.77-1.01-1.38-1.73-1.83-.72-.45-1.54-.77-2.48-.95-.93-.18-1.9-.28-2.9-.28h-10.86v12.37h11.92Z"/>
      <path class="cls-1" d="M147.76,254.45v-4.11h-.1c-.9,1.6-2.05,2.78-3.45,3.53s-3.05,1.13-4.96,1.13c-1.7,0-3.12-.23-4.26-.68-1.13-.45-2.05-1.09-2.75-1.93-.7-.83-1.19-1.83-1.48-2.98-.28-1.15-.43-2.43-.43-3.83v-17.02h4.26v17.52c0,1.6.47,2.87,1.4,3.81.93.93,2.22,1.4,3.85,1.4,1.3,0,2.43-.2,3.38-.6.95-.4,1.74-.97,2.38-1.7.63-.73,1.11-1.59,1.43-2.58.32-.98.48-2.06.48-3.23v-14.62h4.26v25.88h-4.01Z"/>
      <path class="cls-1" d="M160.96,248.67c.4.65.93,1.17,1.58,1.55s1.38.66,2.2.83c.82.17,1.66.25,2.53.25.67,0,1.37-.05,2.1-.15.73-.1,1.41-.28,2.03-.55.62-.27,1.13-.66,1.53-1.18.4-.52.6-1.18.6-1.98,0-1.1-.42-1.93-1.25-2.5-.83-.57-1.88-1.03-3.13-1.38s-2.61-.67-4.08-.95c-1.47-.28-2.83-.68-4.08-1.2-1.25-.52-2.29-1.24-3.13-2.18-.83-.93-1.25-2.24-1.25-3.9,0-1.3.29-2.42.88-3.35.58-.93,1.33-1.69,2.25-2.28.92-.58,1.95-1.02,3.1-1.3,1.15-.28,2.29-.43,3.43-.43,1.47,0,2.82.12,4.06.38,1.23.25,2.33.68,3.28,1.3s1.71,1.45,2.28,2.5c.57,1.05.9,2.36,1,3.93h-4.26c-.07-.83-.28-1.53-.65-2.08-.37-.55-.83-.99-1.4-1.33-.57-.33-1.19-.58-1.88-.73-.68-.15-1.38-.23-2.08-.23-.63,0-1.28.05-1.93.15s-1.24.28-1.78.53c-.53.25-.97.58-1.3,1-.33.42-.5.96-.5,1.63,0,.73.26,1.34.78,1.83.52.48,1.18.88,1.98,1.2.8.32,1.7.58,2.7.8,1,.22,2,.44,3,.68,1.07.23,2.11.52,3.13.85,1.02.33,1.92.78,2.7,1.33.78.55,1.42,1.24,1.9,2.08.48.83.73,1.87.73,3.1,0,1.57-.33,2.87-.98,3.91-.65,1.04-1.5,1.87-2.55,2.5-1.05.63-2.24,1.08-3.55,1.33-1.32.25-2.63.38-3.93.38-1.44,0-2.8-.15-4.11-.45-1.3-.3-2.45-.79-3.45-1.48-1-.68-1.8-1.58-2.4-2.7-.6-1.12-.93-2.48-1-4.08h4.26c.03.94.25,1.73.65,2.38Z"/>
      <path class="cls-1" d="M182.41,223.91v-5.21h4.26v5.21h-4.26ZM186.67,228.56v25.88h-4.26v-25.88h4.26Z"/>
      <path class="cls-1" d="M196.51,228.56v4.11h.1c1.77-3.14,4.57-4.71,8.41-4.71,1.7,0,3.12.23,4.26.7,1.13.47,2.05,1.12,2.75,1.95.7.83,1.19,1.83,1.48,2.98.28,1.15.43,2.43.43,3.83v17.02h-4.26v-17.52c0-1.6-.47-2.87-1.4-3.8-.93-.93-2.22-1.4-3.85-1.4-1.3,0-2.43.2-3.38.6-.95.4-1.74.97-2.38,1.7-.63.73-1.11,1.59-1.43,2.58-.32.98-.48,2.06-.48,3.23v14.62h-4.26v-25.88h4.01Z"/>
      <path class="cls-1" d="M237.98,252.8c-1.94,1.47-4.37,2.2-7.31,2.2-2.07,0-3.86-.33-5.38-1-1.52-.67-2.8-1.6-3.83-2.8-1.04-1.2-1.81-2.64-2.33-4.31-.52-1.67-.81-3.49-.88-5.46,0-1.97.3-3.77.9-5.41.6-1.63,1.44-3.05,2.53-4.26,1.08-1.2,2.37-2.13,3.85-2.8,1.48-.67,3.11-1,4.88-1,2.3,0,4.21.48,5.73,1.43,1.52.95,2.74,2.16,3.65,3.63.92,1.47,1.55,3.07,1.9,4.81.35,1.74.49,3.39.43,4.96h-19.38c-.03,1.14.1,2.21.4,3.23.3,1.02.78,1.92,1.45,2.7.67.78,1.52,1.41,2.55,1.88,1.03.47,2.25.7,3.65.7,1.8,0,3.28-.42,4.43-1.25,1.15-.83,1.91-2.1,2.28-3.8h4.21c-.57,2.9-1.82,5.09-3.75,6.56ZM236.95,236.17c-.38-.9-.9-1.68-1.55-2.33-.65-.65-1.42-1.17-2.3-1.55-.88-.38-1.86-.58-2.93-.58s-2.09.19-2.98.58c-.88.38-1.64.91-2.28,1.58-.63.67-1.14,1.44-1.5,2.33-.37.88-.58,1.83-.65,2.83h14.87c-.07-1-.29-1.95-.68-2.85Z"/>
      <path class="cls-1" d="M249.58,248.67c.4.65.93,1.17,1.58,1.55s1.38.66,2.2.83c.82.17,1.66.25,2.53.25.67,0,1.37-.05,2.1-.15.73-.1,1.41-.28,2.03-.55.62-.27,1.13-.66,1.53-1.18.4-.52.6-1.18.6-1.98,0-1.1-.42-1.93-1.25-2.5-.83-.57-1.88-1.03-3.13-1.38s-2.61-.67-4.08-.95c-1.47-.28-2.83-.68-4.08-1.2-1.25-.52-2.29-1.24-3.13-2.18-.83-.93-1.25-2.24-1.25-3.9,0-1.3.29-2.42.88-3.35.58-.93,1.33-1.69,2.25-2.28.92-.58,1.95-1.02,3.1-1.3,1.15-.28,2.29-.43,3.43-.43,1.47,0,2.82.12,4.06.38,1.23.25,2.33.68,3.28,1.3s1.71,1.45,2.28,2.5c.57,1.05.9,2.36,1,3.93h-4.26c-.07-.83-.28-1.53-.65-2.08-.37-.55-.83-.99-1.4-1.33-.57-.33-1.19-.58-1.88-.73-.68-.15-1.38-.23-2.08-.23-.63,0-1.28.05-1.93.15s-1.24.28-1.78.53c-.53.25-.97.58-1.3,1-.33.42-.5.96-.5,1.63,0,.73.26,1.34.78,1.83.52.48,1.18.88,1.98,1.2.8.32,1.7.58,2.7.8,1,.22,2,.44,3,.68,1.07.23,2.11.52,3.13.85,1.02.33,1.92.78,2.7,1.33.78.55,1.42,1.24,1.9,2.08.48.83.73,1.87.73,3.1,0,1.57-.33,2.87-.98,3.91-.65,1.04-1.5,1.87-2.55,2.5-1.05.63-2.24,1.08-3.55,1.33-1.32.25-2.63.38-3.93.38-1.44,0-2.8-.15-4.11-.45-1.3-.3-2.45-.79-3.45-1.48-1-.68-1.8-1.58-2.4-2.7-.6-1.12-.93-2.48-1-4.08h4.26c.03.94.25,1.73.65,2.38Z"/>
      <path class="cls-1" d="M274.35,248.67c.4.65.93,1.17,1.58,1.55s1.38.66,2.2.83c.82.17,1.66.25,2.53.25.67,0,1.37-.05,2.1-.15.73-.1,1.41-.28,2.03-.55.62-.27,1.13-.66,1.53-1.18.4-.52.6-1.18.6-1.98,0-1.1-.42-1.93-1.25-2.5-.83-.57-1.88-1.03-3.13-1.38s-2.61-.67-4.08-.95c-1.47-.28-2.83-.68-4.08-1.2-1.25-.52-2.29-1.24-3.13-2.18-.83-.93-1.25-2.24-1.25-3.9,0-1.3.29-2.42.88-3.35.58-.93,1.33-1.69,2.25-2.28.92-.58,1.95-1.02,3.1-1.3,1.15-.28,2.29-.43,3.43-.43,1.47,0,2.82.12,4.06.38,1.23.25,2.33.68,3.28,1.3s1.71,1.45,2.28,2.5c.57,1.05.9,2.36,1,3.93h-4.26c-.07-.83-.28-1.53-.65-2.08-.37-.55-.83-.99-1.4-1.33-.57-.33-1.19-.58-1.88-.73-.68-.15-1.38-.23-2.08-.23-.63,0-1.28.05-1.93.15s-1.24.28-1.78.53c-.53.25-.97.58-1.3,1-.33.42-.5.96-.5,1.63,0,.73.26,1.34.78,1.83.52.48,1.18.88,1.98,1.2.8.32,1.7.58,2.7.8,1,.22,2,.44,3,.68,1.07.23,2.11.52,3.13.85,1.02.33,1.92.78,2.7,1.33.78.55,1.42,1.24,1.9,2.08.48.83.73,1.87.73,3.1,0,1.57-.33,2.87-.98,3.91-.65,1.04-1.5,1.87-2.55,2.5-1.05.63-2.24,1.08-3.55,1.33-1.32.25-2.63.38-3.93.38-1.44,0-2.8-.15-4.11-.45-1.3-.3-2.45-.79-3.45-1.48-1-.68-1.8-1.58-2.4-2.7-.6-1.12-.93-2.48-1-4.08h4.26c.03.94.25,1.73.65,2.38Z"/>
      <path class="cls-1" d="M325.39,253.75c-1.85.83-3.76,1.25-5.73,1.25-2.4,0-4.34-.37-5.81-1.1-1.47-.73-2.6-1.62-3.4-2.65-.8-1.03-1.33-2.1-1.58-3.2-.25-1.1-.38-2.02-.38-2.75,0-1.4.23-2.64.68-3.71.45-1.07,1.05-2.03,1.8-2.88.75-.85,1.64-1.62,2.65-2.3,1.02-.68,2.09-1.33,3.23-1.93-.5-.7-.98-1.37-1.45-2-.47-.63-.89-1.28-1.28-1.93-.38-.65-.68-1.33-.9-2.05-.22-.72-.33-1.53-.33-2.43,0-.97.18-1.89.53-2.78.35-.88.87-1.67,1.55-2.35s1.53-1.23,2.53-1.63c1-.4,2.15-.6,3.45-.6,1.1,0,2.18.15,3.23.45,1.05.3,1.98.76,2.78,1.38.8.62,1.44,1.38,1.93,2.3.48.92.73,1.98.73,3.18,0,1.07-.18,2.06-.55,2.98-.37.92-.87,1.76-1.5,2.53-.63.77-1.35,1.46-2.15,2.08-.8.62-1.64,1.18-2.5,1.68l6.46,7.86c.67-1.87,1.05-3.72,1.15-5.56h4.06c-.1,1.07-.21,1.98-.33,2.73-.12.75-.27,1.44-.45,2.08-.18.63-.41,1.26-.68,1.88-.27.62-.58,1.33-.95,2.13l6.96,8.06h-5.56l-3.81-4.46c-1.07,1.67-2.53,2.92-4.38,3.75ZM316.83,238.63c-.75.5-1.41,1.07-1.98,1.7-.57.63-1.02,1.34-1.35,2.13-.33.79-.5,1.71-.5,2.78,0,.9.19,1.73.58,2.48.38.75.89,1.39,1.53,1.9.63.52,1.36.93,2.18,1.23.82.3,1.66.45,2.53.45,1.63,0,3.1-.38,4.38-1.15,1.28-.77,2.36-1.8,3.23-3.1l-8.21-9.86c-.83.47-1.63.95-2.38,1.45ZM322.21,231.37c.57-.4,1.08-.85,1.55-1.35.47-.5.85-1.06,1.15-1.68.3-.62.45-1.31.45-2.08,0-1.03-.37-1.93-1.1-2.68-.73-.75-1.74-1.13-3-1.13-1,0-1.94.31-2.8.93-.87.62-1.3,1.58-1.3,2.88,0,.53.11,1.07.33,1.6.22.53.49,1.06.83,1.58.33.52.7,1.03,1.1,1.53.4.5.8,1,1.2,1.5.5-.33,1.03-.7,1.6-1.1Z"/>
      <path class="cls-1" d="M352.4,222.71v-4.01h28.59v4.01h-11.92v31.74h-4.76v-31.74h-11.92Z"/>
      <path class="cls-1" d="M383.1,228.56v5.46h.1c1.03-2.1,2.3-3.66,3.81-4.66,1.5-1,3.4-1.47,5.71-1.4v4.51c-1.7,0-3.15.23-4.36.7-1.2.47-2.17,1.15-2.9,2.05-.73.9-1.27,2-1.6,3.28-.33,1.29-.5,2.76-.5,4.43v11.52h-4.26v-25.88h4.01Z"/>
      <path class="cls-1" d="M418.37,254.35c-.73.43-1.75.65-3.05.65-1.1,0-1.98-.31-2.63-.93-.65-.62-.98-1.63-.98-3.03-1.17,1.4-2.53,2.41-4.08,3.03-1.55.62-3.23.93-5.03.93-1.17,0-2.28-.13-3.33-.4-1.05-.27-1.96-.68-2.73-1.25-.77-.57-1.38-1.31-1.83-2.23-.45-.92-.68-2.03-.68-3.33,0-1.47.25-2.67.75-3.6.5-.93,1.16-1.69,1.98-2.28.82-.58,1.75-1.03,2.8-1.33,1.05-.3,2.13-.55,3.23-.75,1.17-.23,2.28-.41,3.33-.53,1.05-.12,1.98-.28,2.78-.5.8-.22,1.43-.53,1.9-.95.47-.42.7-1.03.7-1.83,0-.93-.18-1.68-.53-2.25-.35-.57-.8-1-1.35-1.3-.55-.3-1.17-.5-1.85-.6-.68-.1-1.36-.15-2.03-.15-1.8,0-3.3.34-4.51,1.03-1.2.68-1.85,1.98-1.95,3.88h-4.26c.07-1.6.4-2.95,1-4.05.6-1.1,1.4-1.99,2.4-2.68,1-.68,2.14-1.18,3.43-1.48,1.28-.3,2.66-.45,4.13-.45,1.17,0,2.33.08,3.48.25,1.15.17,2.19.51,3.13,1.02.93.52,1.69,1.24,2.25,2.17.57.93.85,2.15.85,3.65v13.29c0,1,.06,1.73.18,2.2.12.47.51.7,1.18.7.37,0,.8-.07,1.3-.2v3.3ZM411.46,241.08c-.53.4-1.24.69-2.1.87-.87.18-1.78.33-2.73.45s-1.91.25-2.88.4c-.97.15-1.84.39-2.6.72-.77.33-1.39.81-1.88,1.42-.48.62-.73,1.45-.73,2.52,0,.7.14,1.29.43,1.77.28.48.65.87,1.1,1.17s.98.51,1.58.65c.6.13,1.23.2,1.9.2,1.4,0,2.6-.19,3.6-.57,1-.38,1.82-.86,2.45-1.44.63-.58,1.1-1.21,1.4-1.89s.45-1.32.45-1.92v-4.33Z"/>
      <path class="cls-1" d="M440.49,254.45v-3.5h-.1c-.7,1.44-1.8,2.47-3.3,3.1s-3.15.95-4.96.95c-2,0-3.75-.37-5.23-1.1-1.49-.73-2.72-1.72-3.71-2.95-.98-1.23-1.73-2.67-2.23-4.31-.5-1.63-.75-3.37-.75-5.21s.24-3.57.73-5.21c.48-1.63,1.22-3.06,2.2-4.28.98-1.22,2.22-2.19,3.7-2.9,1.48-.72,3.21-1.08,5.18-1.08.67,0,1.38.07,2.15.2.77.13,1.53.36,2.3.68.77.32,1.49.73,2.18,1.25.68.52,1.26,1.16,1.73,1.93h.1v-13.32h4.26v35.75h-4.26ZM425.2,245.26c.32,1.15.8,2.18,1.45,3.08s1.48,1.62,2.5,2.15c1.02.53,2.21.8,3.58.8s2.65-.28,3.66-.85c1-.57,1.82-1.31,2.45-2.23.63-.92,1.09-1.96,1.38-3.13.28-1.17.43-2.35.43-3.55,0-1.27-.15-2.5-.45-3.68-.3-1.18-.78-2.23-1.43-3.13s-1.49-1.63-2.53-2.18c-1.04-.55-2.29-.83-3.75-.83s-2.65.28-3.65.85c-1,.57-1.8,1.32-2.4,2.25-.6.93-1.04,2-1.3,3.2-.27,1.2-.4,2.44-.4,3.71,0,1.2.16,2.38.48,3.53Z"/>
      <path class="cls-1" d="M468.94,252.8c-1.94,1.47-4.37,2.2-7.31,2.2-2.07,0-3.86-.33-5.38-1-1.52-.67-2.8-1.6-3.83-2.8-1.04-1.2-1.81-2.64-2.33-4.31-.52-1.67-.81-3.49-.88-5.46,0-1.97.3-3.77.9-5.41.6-1.63,1.44-3.05,2.53-4.26,1.08-1.2,2.37-2.13,3.85-2.8,1.48-.67,3.11-1,4.88-1,2.3,0,4.21.48,5.73,1.43,1.52.95,2.74,2.16,3.65,3.63.92,1.47,1.55,3.07,1.9,4.81.35,1.74.49,3.39.43,4.96h-19.38c-.03,1.14.1,2.21.4,3.23.3,1.02.78,1.92,1.45,2.7.67.78,1.52,1.41,2.55,1.88,1.03.47,2.25.7,3.65.7,1.8,0,3.28-.42,4.43-1.25,1.15-.83,1.91-2.1,2.28-3.8h4.21c-.57,2.9-1.82,5.09-3.75,6.56ZM467.92,236.17c-.38-.9-.9-1.68-1.55-2.33-.65-.65-1.42-1.17-2.3-1.55-.88-.38-1.86-.58-2.93-.58s-2.09.19-2.98.58c-.88.38-1.64.91-2.28,1.58-.63.67-1.14,1.44-1.5,2.33-.37.88-.58,1.83-.65,2.83h14.87c-.07-1-.29-1.95-.68-2.85Z"/>
    </g>
  </g>
  <g id="Trade">
    <g>
      <g>
        <g>
          <g>
            <path class="cls-1" d="M140.13,106.37c-.17-.07.11-.42.24-.49.14-.07.63-.09.63-.09,0,0-.15.23-.17.45-.03.23-.53.2-.7.13"/>
            <path class="cls-1" d="M141.57,107.2c-.17-.07.11-.42.25-.49.14-.07.63-.09.63-.09,0,0-.14.23-.17.46-.03.23-.53.2-.7.13"/>
            <path class="cls-1" d="M141.66,106.13c-.17-.07.11-.42.25-.49.14-.07.63-.09.63-.09,0,0-.15.23-.17.45-.03.23-.53.2-.7.13"/>
            <path class="cls-1" d="M140.16,107.38c-.17-.07.11-.42.24-.49.14-.07.63-.09.63-.09,0,0-.15.23-.17.45-.03.23-.53.2-.7.13"/>
            <path class="cls-1" d="M141.61,108.21c-.15-.06.09-.36.21-.43.12-.06.54-.08.54-.08,0,0-.13.2-.15.39-.02.2-.46.17-.6.11"/>
            <path class="cls-1" d="M140.19,108.47c-.15-.06.09-.36.21-.43.12-.06.54-.08.54-.08,0,0-.12.2-.15.39-.02.2-.45.17-.6.11"/>
            <path class="cls-1" d="M142.84,108.1c-.15-.06.09-.36.21-.43.12-.06.54-.08.54-.08,0,0-.13.2-.15.39-.02.2-.45.17-.6.11"/>
            <path class="cls-1" d="M141.67,109.17c-.15-.06.09-.36.21-.43.12-.06.54-.08.54-.08,0,0-.13.2-.15.39-.02.2-.45.17-.6.11"/>
            <path class="cls-1" d="M142.9,109.09c-.15-.06.09-.36.21-.43.12-.06.54-.08.54-.08,0,0-.13.2-.15.39-.02.2-.45.17-.6.11"/>
            <path class="cls-1" d="M142.94,107.16c-.15-.06.09-.36.21-.43.12-.06.54-.08.54-.08,0,0-.13.2-.15.39-.02.2-.46.17-.6.11"/>
          </g>
          <g>
            <path class="cls-2" d="M110.16,113.4c-.42-.43-.51-.99-.39-1.44.2-.77.16-1.35-.16-1.71-.14-.16-.25-.27-.43-.35.19,1.01.27,1.87-.41,2.72.07-.3-.3-.91-.25-1.67.04-.65.27-1.32.05-1.61.25.19.89.29,1.16.34.61.08.77.38.98.87.07.16.33.33.42.51.11-.28.25-.5.3-.65.08-.25.04-.47-.03-.74.33.03.49.67.62.81.12.13.21.25.44.25.1-.27.08-.48.11-.74.04-.34.18-.61.05-1,.19.03.39.28.49.52.13.31.08.56.3.74.22-.14.33-.4.39-.54.18-.49.3-.89.32-1.48.26.21.4.23.66.44.31.25.49.75.72.9.7.47,1.44.84,2.17,1.17.93.42,1.8.71,3.26,1.03.61.08,1.04.11,1.59-.04.25-.07.82-.09.95-.09.13,0,.44.08.77.16.53.14.7.71.69,1.17-.52.35-.98.37-1.79.55-.64.15-1.22.22-1.7.73-.11.11-.24.31-.46.31.04-.1.03-.22-.06-.34-.05-.07-.18-.16-.32-.19-.2.2-.24.6-.52.51.03-.19-.24-.27-.44-.25-.21.02-.31.23-.54.2.1-.24-.19-.47-.4-.57-.07.05-.31.52-.59.55.13-.29-.15-.72-.42-.8-.08.25-.21.7-.59.8.13-.29.04-.99-.44-1.06-.02.41-.11.66-.42.87.13-1.11-.81-1.46-1.68-1.73-.35-.11-.35-.12-.7-.25-.19-.08-.39-.14-.64-.13-.06.27.18.82.44,1.08-.48-.06-.78-.25-.99-.5-.18-.21-.19-.4-.35-.77-.33.8.11,1.05.43,1.54-1.27,0-1.32-1.49-1.33-1.57-.15.18-.22.32-.29.57-.02.3.05.74.31,1.03-.19-.03-.59-.27-.67-.53-.1-.31-.07-.15-.1-.48-.02-.24-.01-.87-.12-1.12-.1.17-.25.44-.23.74.1.66-.29.86-.18,1.25"/>
            <path class="cls-2" d="M103.99,105.05c-.04.52.24.8.5,1.29.3.59.32,1.45.02,2.18-.11.26-.26.55-.49.86-.37-1.52-.86-3.02-.03-4.34"/>
            <path class="cls-2" d="M107.59,108.38c-.01.35.51.72.56,1.29.04.37-.04.69-.12,1.04-.11.43.13.69-.08,1.22-.11.28-.23.56-.2.97-.15-.2-.73-1.24-.52-2.08.17-.68.18-1.08.19-1.84,0-.24.08-.42.18-.6"/>
            <path class="cls-2" d="M106.57,111.8c-.56-.39-.83-1.39-.64-1.91.37-1.01.26-1.1.22-2.12,0-.19.03-.6.16-.89-.01.9.61,1.18.61,2.04,0,.37.02.95-.2,1.45-.29.66-.23,1.24-.16,1.44"/>
            <path class="cls-2" d="M105.13,106.19c.07.47.34.92.49,1.2.2.38.16,1.21-.11,2.04-.12.36-.48.81-.48,1.17-.07-.21.04.14-.16-.64-.21-.86.22-1.28.29-1.94.04-.46-.06-1.35-.03-1.82"/>
          </g>
          <g>
            <path class="cls-1" d="M96.55,115.33s.54-.34.82-1.67c.27-1.34,1.83-2.13,2.32-2.2-.44.5-.83,1.11-1.23,1.85-.57,1.05-1.48,1.82-1.9,2.02"/>
            <path class="cls-1" d="M103.87,111.52c-.35-.87-.55-1.34-1.44-1.84-.62-.34-1.05-.42-1.76-.52-1.14-.17-1.72.07-2.14.29-.42.22-.76.51-1.14,1.31-.3.63-.26,1.2-.24,1.77.15-.71.39-1.28.85-1.74.42-.43.92-.72,1.13-.78.7-.2,1.12-.02,1.12-.02-.5.11-.82.2-1.19.45-.62.42-1.21,1.23-1.37,1.86,0,0,.57-.97,1.54-1.41.75-.39,1.46-.43,2.08-.32-.2.07-.43.18-.71.38-.45.32-.78.93-1.13,1.59-.51.96-.88,1.51-1.29,1.89.33-.11,1.42-.72,1.87-1.38.45-.66.84-1.54.98-1.72.14-.18.62-.44.91-.35.29.09.53.31.53.32.27.3.6.88.48,1.88-.19,1.61-.83,2.92-2.23,5.3-1.34,2.27-2.1,3.13-2.65,4.36-.76,1.71-.63,3.96,1.19,4.44.86.28,2.11-.25,2.11-.25,0,0,.36-.27.35.53l.18-2.9s-.32,1.26-1.38,1.33c-1.05.07-1.53-.2-1.64-.95-.11-.75.36-2.06.73-2.68.36-.62,2.82-4.65,2.91-4.87.09-.22,1.02-1.82,1.24-2.93.22-1.11.42-2.16.07-3.04"/>
          </g>
          <path class="cls-2" d="M101.03,136c-.26,1.2-.24,1.72-.18,2.26.14-.18.28-.28.41-.27-.13.37-.16.65-.14.95.14-.21.26-.33.45-.39-.06.36-.09.62-.04,1.03.17-.37.33-.73.52-.59.18.12,0,0,.18.11.15.09-.16.6-.21.74-.05.13.19.36.48.44-.27,1.05-.53,1.91-.31,2.85.08.35.23.68.67.93-.18-.8-.17-1.41-.09-2.03.05-.42.26-.82.44-1.21.1-.2.35-.12.46.13.15.36.15,1.15.16,1.54.04,1.31.22,2.01,1.49,2.64.51.25.9.11,1.18-.13.18-.16.52-.51.31-.83-.3-.46-.17-.54.26-.49.52.07.9-.25,1.11-.67.1-.2.14-.81-.25-.76-1.05.13-1.08-.4-1.24-.75-.15-.35-.08-1.61.33-1.65.22-.02.32-.27.24-.59-2.47.02-4.97-1.12-6.23-3.27M104.54,143.02c-.13-.64-.19-1.14-.19-1.79,0-.52.29-.61.83-.61.45,0,.56.21.45.44-.42.89-.25,1.75.12,2.53-.51.52-1.09,0-1.22-.57"/>
          <path class="cls-1" d="M106.98,112.62c.04.33.73,1.74,1.24.62.51-1.13,1.49,1.09,3.45,1.09s2.75-.6,3.33-.5c.58.09.92.52.67,1.23-.48,1.4-1.42,2.22-3.49,4.22-.7.89-1.25,1.82-1.31,1.92-.19.38-.18.65,0,.71.15.05.31-.02.47-.23.36-.47.45-1.12,1.09-1.5.4-.24,2.18-.94,2.18-.94,0,0,.98-.33,1.49.22.51.54.8,2.29.73,3.05-.07.76-.36,2.25-2,3.38-1.64,1.13-.91,2.11-.51,2.54.4.44,2.52.22,2.52.22,0,0,.84.03,1.3.75.25.4.25.93.25.93,0,0-.93.66-1.64.58-1.22-.13-1.75-.65-2.76-.62-1.02.04-2.69.04-2.69.04,0,0-.91-.12-.65-.94.4-1.29.92-2.66.79-3.46-.09-.51-.94-.46-1.26-.34-.32.12-.59.3-1.07.05-.19-.1-.2-.55-.27-.87-.13-.67-.14-1.55.13-2.45.14-.47.13-.44.21-.6.16-.34-.27-.73-.6-.05-.45.94-.48,1.71-.49,2.29-.02,1.16.74,3.54.59,4.63-.15,1.09-.44,1.82-1.24,2.62-.8.8-3.34,3.85-3.34,3.85,0,0-1.02,1.21-.36,2.55.45.93,1.47.76,1.93.76.39,0,.62-.16,1.22.33.52.43.62,1.08.13,1.16-2.53.42-3.58-.05-4.91-.84-1.33-.78-1.09-2.87-1.09-2.87,0,0-.05-1.04,1.58-2.22.4-.64.76-1.51.47-2.05-.28-.52-.85-1.58-.85-1.58,0,0-.55-2.36-.47-3.31.07-.94-.04-2.4.73-3.93.76-1.53,2.31-3.4,2.93-4.94.62-1.54,1.37-3.39,1.58-5.5"/>
          <g>
            <path class="cls-2" d="M108.98,105.75c0,.17-.03.31-.11.39-.44-.08-.66-.47-.8-.75-.57.08-.8-.07-1.26-.43-.28-.23-.59-.73-.77-1.17-.29.03-.76-.33-1.04-.65-.5-.52-.43-1.02-.87-1.67-.11,1.22-.96,2.08-.4,3.26.21-.47.34-.88.63-1.24,0,.75,0,.88.07,1.5.05.35.2.77.4.94-.06-.42-.02-.59.08-.87.13-.37.25-.51.51-.66.09.24.08.36.05.61-.02.24-.04.45.03.76.13.52.28.78.41,1.14-.04-.37.02-.73.12-1,.09-.26.19-.38.4-.53.33.58.28.93.33,1.48.05.53.37.71.47,1.06.22-.48-.19-1.27.49-1.73-.11.69-.1,1.16.12,1.71.13.31.46.56.57,1,.08-.63-.25-1.32.09-1.98.32.32.21.6.3.93.13.47.38.73.25,1.18.65-.28.35-1.45.35-2.13,0-.44.06-.4.14-.71-.15-.17-.36-.28-.55-.42"/>
            <path class="cls-2" d="M110.94,103.62c0-.14-.02-.39.15-.55.18.05.41.24.45.52.06.34.06.84-.08.98.69-.37.71-1.05.56-1.59-.13-.43-.51-.65-.44-1.02.58-.09.74.65.77,1.02.2-.31.29-.79.2-1.15-.07-.27-.47-.55-.3-.94.18,0,.29.16.41.33.11.15.21.37.27.59.13-.41.06-.76-.08-1.09-.14-.32-.35-.37-.42-.92.29-.13.3.23.64.34.02-.37.05-.5-.29-.99.11-.11.34-.02.47.13.02-.35-.33-.8-.53-.99.14-.07.29,0,.41.06.05-.31-.16-.6-.35-.75-.22-.18-.39-.15-.58-.32-.18-.17-.45-.54-.5-.81.2-.02.46-.05.68-.15.36-.17.55-.35.76-.67.24-.35.33-.8-.06-1.19-.3-.3-.71-.39-1.08-.27-.41.13-.64.56-1.13.31-.07.23-.19.31-.23.3-.26-.07-.56-.11-.86-.15-.28-.03-2.77.35-3.05.43-.58.18-1.54.8-1.41.24-.13.54-.86-.25-1.65.46-.45.37-.54.95-.36,1.39.24.57.82.76,1.55.62-.02.24-.06.42-.27.63-.18.17-.42.32-.56.72-.13.53-.11,1.5.37,1.93-.07-.55-.07-.8.09-1.15.11-.27.36-.48.5-.47-.11.41-.19.98-.19,1.47,0,.52,0,.82.28,1.3.01-.58.21-1.32.53-1.37.32.52-.06.98-.13,1.44-.08.51.2.75.54.92-.1-.24-.03-.51.02-.72.06-.24.3-.97.71-.79-.42.82-.41,1.32-.21,1.95.13.4.52.89.81.95-.21-.27-.35-.79-.35-1.09,0-.51.09-1.1.31-1.24.11.11.26.3.21.71-.06.44-.1.59.03,1.01.12.38.34.64.55.87-.16-.9-.04-1.89.37-2.09-.05.69-.11,1.24.12,1.66.22.42.38.94.38,1.31.19.14.4.25.55.42.02-.07.04-.17.06-.29.08-.54-.34-1.25-.32-1.54.29-.02.55.55.67.88.38-.18.71-.44,1.07-.65-.03-.32-.06-.63-.07-.95M110.15,101.01q-.18.08-.35.22c-.13.17-.08.45,0,.71.1.37,0,.64-.29.7-.25.05-.49,0-.62-.32-.15-.35-.2-.65-.1-.91-.36.02-.61.01-.81,0-.17-.01-.4,0-.53-.14-.17-.19-.36-.62-.13-.76.24-.15.89-.2,1.08-.21-.17-.47-.6-.5-.76-.8-.14-.26-.23-.62-.12-1.04-.03,0-.42.09-.57.1-.44.04-.65-.24-.73-.57-.05-.24-.23-.58-.46-.76.05-.14.22-.19.37-.21.25-.02.25,0,.51.02.21.02.44,0,.63-.05.28-.08.32-.13.51-.3.13.22.15.42.11.8-.04.39-.06.85.03,1.23.11.47.39.6.86.51.49-.09.48-.3.47-.63-.07-.85-.68-1.11-.34-2.09.25.21.6.17,1.07.08.28-.05.56-.29.97-.12-.25.38-.14.5-.2.85-.11.73-.83.83-1.3.79.37.48.36.79.26,1.17-.12.47-.27.36-.32.83.27-.1,1-.45,1.18-.26.22.47.26.84-.39,1.15"/>
            <path class="cls-2" d="M114.35,106.52c-.28-.24-.64-.96-.51-1.18.37,0,.8.64,1.17,1.04.38.42,1.01.54,1.22,1.12-.03-.78-.24-1.28-.77-1.72-.27-.22-.68-.49-1.01-.7.08-.05.13-.04.31-.04.16,0,.45.16.59.23.29.14.39,0,.7.27.06-.06-.33-.66-.53-.85-.2-.18-.47-.33-.71-.41-.42-.13-1.02-.11-1.38-.26-.33-.14-.42-.21-.78-.48-.19.8-.39,1.09-.97,1.57-.22.18-.33.27-.47.17-.11-.09-.12-.2-.13-.31-.01-.14-.03-.27-.04-.4-.36.21-.69.47-1.07.65,0,0,0,0,0,0,.16.46.14.83.03,1.28-.17.71-.05,1.37.08,2.05.08.43.89,1.24.93,1.54.12-.37-.31-1.18-.34-1.43-.05-.41-.12-.61-.11-1,0-.39.12-1.07.18-1.07.16.14.41.69.38,1.28-.03.57.17.95.47,1.3.17.2.45.19.54.61.11-.36.07-.58.02-.8-.12-.52.01-.63.04-1.18q.02-.43-.08-.87c-.07-.29-.01-.69.11-.83.16.05.37.61.37.91,0,.27.03.84.17,1.13.21.42.77.77.74,1.11.27-.88.19-1.65-.12-2.58-.11-.34-.31-.76-.29-1.19.34.13.64,1.13.77,1.49.1.27.08.28.26.48.21.24.4.43.68.56.52.23.68.55.91,1,.05-.22.03-.58-.14-1.04-.27-.74-.59-.95-1.19-1.48"/>
            <path class="cls-2" d="M115.29,101.9c-.23-.61-.72-.52-1.11-.82-.11-.08-.29-.35-.38-.51-.07.15-.08.45.12.65.22.22.53.37.76.59.31.3.26.66.78.92-.72.35-1.16-.66-1.64-.46.16.91,1.21.76,1.64,1.49-.51-.16-.8-.08-1.28-.1-.2,0-.58-.09-.75-.19-.48-.29-.43-.48-.32-.85.16-.54.44-.78.29-1.39-.04-.16-.05-.33-.05-.51,0-.5.58-1.27.12-1.87.22.15.5.36.52.71.05.56.13,1.01.7,1.25.84.35.66,1.06.61,1.11"/>
            <path class="cls-2" d="M129.48,114.93c-.58.13-1.16.25-1.74.4-.52.13-.9.13-1.22-.45-.25-.45-.46-.44-.46-.44,0,0-.02.21-.33.25-.1.01-.48-.02-.61-.05-.4-.09-.94-.18-1.33-.16.23.2-.03.43-.18.45-.59.1-1.35.13-1.96.2.37.18.44.78-.07.91-.38.1-.97.1-1.31.35.48.33.12.65.02.74-.19.17-.36.3-.67.42-.32.12-.71.27-.78.48.65.15-.14.84-.36,1.09-.25.28-.4.34-.46.67.39,0,.85.1.62.46-.23.4-.61,1.05-.71,1.28-.09.2-.19.4-.29.6.88-.5,1.22-.73,1.97-.18.17.12.25.14.44.1.24-.05.43-.14.62-.28.42-.3.69-.23.84.27.74-.74,1.43-1,1.8-.59.27-.31.53-.63.79-.94.37-.45.8-.52.95.11.16-.33.25-.51.38-.74.18-.32.31-.75.58-.8.12-.03.24-.06.35.16.05-.17.05-.39.06-.5.04-.43.05-.86.08-1.31.15.32.2.62.23,1.15,0,.48.08,1.01-.27,1.58-.1-.38-.22-.81-.41-.6-.43.5-.68,1.26-1.1,2.05,0-.22-.12-1.06-.4-.96-.34.11-.82.91-1.23,1.46-.19-.34-.27-.43-.6-.32-.16.05-.37.16-.49.27-.36.34-.45.89-.54,1.35-.06.28-.21.6-.43.79-.1.08-.19.17-.29.25.19.13.37.27.56.4.49-.24.83-.45,1.28-.66.61-.27,1.62-.6,1.34.12.31-.03.58-.25.7-.37.44-.45.69-.94,1.17-1.02.11-.02.22-.03.33-.05.2-.25.43-.46.66-.69-.1-.02-.29-.18-.25-.43.02-.14.11-.46.14-.57.08-.35.35-.66.97-.5-.02-.34-.03-.63-.06-.92-.05-.61.31-.7.8-.68-.1-.42-.19-.81-.29-1.2-.04-.17-.09-.35-.17-.51-.34-.65-.33-.75.21-1.09.56-.35,1.15-.55,1.77-.64-.19-.25-.4-.49-.64-.69"/>
            <path class="cls-2" d="M149.3,108.7c0-.17-.32-.55-.1-.7.1-.07-.05-.25-.08-.39-.02-.08-.17-.28-.19-.36-.04-.16.05-.21,0-.38-.1-.34-.38-.71-.48-1-.12-.32-.06-.58-.16-.75-.03-.05-.32-.25-.35-.29-.19-.31-.1-.41-.26-.64-.21-.29-.52-.44-.71-.63-.18-.19-.25-.42-.44-.55-.06-.04-.28-.04-.33-.1-.4-.48-.86-.4-1.07-.11-.39.54-.76,1.09-1.13,1.65.05.04.1.07.14.11.01-.02.03-.05.05-.08.29-.36.6-.72.93-1.06.12-.12.4-.33.61-.21.12.06.15.21.1.33-.16.36-.54.7-.82,1.04.27-.2.51-.45.89-.71.19-.13.35-.29.49-.17.19.17-1.06,1.22-1.32,1.52.27-.1,1.17-.87,1.39-.96.22-.08.32-.06.41.03.05.05.11.2.01.32-.25.42-1.68,1.24-1.92,1.49,1.16-.68,2.24-1.17,2.46-.84.1.11,0,.32-.16.43-.22.13-1.16.62-1.49.82.37-.09,1.33-.53,1.6-.54.2,0,.4-.08.56.19.07.19-.25.4-.44.49-.18.09-.55.19-.89.3.42-.02,1.11-.09,1.41-.1.03.04.19-.06.22.09.07.25-.34.29-.47.33-.4.11-1.79.41-1.77.48.47-.07.94-.16,1.41-.19.28-.02,1.02-.04,1.07.16.08.2,0,.42-.26.42-.54,0-1.19.1-1.81.18.65,0,1.14.04,1.61.02.26-.01.64.03.7.28.02.08,0,.31-.14.32-1.67.13-1.91,0-2.93,0,0,.14-.07.18-.11.32.38,0,.75-.01,1.13-.02.76,0,1.2.1,1.97.09.45,0,.7-.35.69-.63"/>
            <path class="cls-2" d="M145.15,108.93c.15-.24.09-.4.32-.52-.09-.05-.46-.1-.35-.18.17-.14.04-.33.24-.46-.47-.22-.69-1.37-.6-1.44-.15-.05-.53-.38-.6-.6-.06-.18.06-.53.23-.66-.26-.03-.41-.28-.28-.52-.05-.04-.09-.07-.14-.11-.03.05-.07.1-.1.15-.15.23-.31.3-.59.2-.19-.07-.62-.06-.52-.19-.1,0-.23,0-.39.05-.24.07-.99-.17-.77-.25-.37-.1-.69-.04-1.06.22,0,0-.03-.02-.04-.03-.08-.05-.12-.19-.12-.19,0,0-.57.26-.77.48-.23.25-.57.98-.7.74-.14.24-.16.55-.23.83-.03.11-.18.51-.24.27-.17.12-.19.4-.17.63,0,.14.07.31.02.4-.22.38-.03.66.17.95.17.25.04.63.48.78.4.13.34.6.07.96-.33.45-.73.49-1.27.32.1.36.04.56-.12.69.14.23.24.49.35.74.62-.32,1.21-.67,1.72-1.17.25-.25.55-.16.78.1.11.12.21.27.34.37.26.2.55.37.72.5-.05-.35,1.14-.01,1.47-.01-.26-.19.64-.34,1.04-.51-.39-.51.56-.4.8-.71-.25-.02-.38-.09-.27-.24.26-.22.49-.42.63-.54-.22-.11-.04-.41-.06-.59.13,0,.25-.11.38-.11.04-.14.1-.18.11-.32h-.47Z"/>
            <path class="cls-2" d="M136.94,122.95c-.27.08-.53.22-.79.34-.38.18-.84-.02-.65-.44.24-.37.43-.79.73-1.1.29-.3.66-.52,1.08-.63-.02-.15-.04-.3-.06-.45-.29.06-.59.1-.87.18-.34.1-.4-.16-.35-.41.14-.69.43-1.27.98-1.69-.03-.24-.05-.48-.07-.72-.31.26-.72.47-1.19.57-.09-.42-.53-1.01.21-1.08-.27-.24-.58-.44-.77-.71-.19-.27-.27-.61-.39-.93-.37-.95.19-2.54,1.1-3.06.17-.1.44-.17.6-.11.16.07.25.33.39.54.14-.29.24-.67.5-.79.18-.09.41-.2.58-.29-.11-.25-.21-.5-.35-.74-.11.09-.27.15-.45.2-.49.13-.97.31-1.45.5-.08.03-.32.17-.44.22-.85.56-.99.53-1.3.57.58.48.08,1.04-.3,1.26-.31.18-.74.06-.95-.09-.14-.1-.27-.2-.4-.41-.2-.31-.26-.73-.15-1.01-.21-.05-.44-.08-.66-.16.01.07.01.13,0,.2-.06.18-.2.18-.3.2-.19.04-.39.03-.65,0-.5-.05-.8-.24-.53-.92-1.49,1.1-3.33.68-4.22-.42.05.35.27.98.41,1.21.34.54.77.86,1.31,1.31.12-.42.76-.59,1.3-.4.17.06.94.32,1.28.46.12.05.31.1.29.34-.02.2-.22.25-.35.28-.18.05-.37.09-.55.13.24.2.45.44.64.69.53-.08,1.07-.07,1.62,0,.56.08.65.17.84.44.25.35.07.67.07.94,0,.11.04.45.05.44.33-.57.62-.52.97.14.17.33.34.67.47,1.03.16.47.22.74-.26,1.18-.23.21-.33.36-.4.61.96-.61.84,1.07.83,1.29,0,.64-.53.95-.83,1.43-.1.16-.17.22-.23.5.5-.36.56,0,.5.44-.02.11-.03.19-.04.26.61.29,1.27.53,1.95.45.23-.53.63-.87,1.21-1.15.25-.12.49-.21.73-.29-.02-.18-.04-.36-.06-.54-.2.05-.4.1-.59.16"/>
            <path class="cls-2" d="M150.33,122.04c-.04-.27.16-.59.5-.8-.75-.33-1.45-.41-2.21-.46-.37-.02-.5-.26-.29-.61.08-.12.13-.15.34-.36-.61-.16-1.17-.17-1.66-.13-.23.02-.34,0-.42-.11-.07-.1-.09-.23.05-.41-.15-.05-.57.07-.76.1-.67.1-1.35-.14-2.02.17-.13.06-.47.13-.59-.14-.01-.03-.04-.14-.02-.2-.08-.01-.26.05-.33.08-.52.21-1.02.28-1.57.04-.05-.02-.1-.03-.16-.02-.19.02-.43.14-.63.16-.33.04-.69-.05-1.02-.01-.18.02-.35.08-.51.22-.09.08-.24.12-.29.22-.35.61-.9.78-1.48.9.02.15.04.3.06.45.09-.02.17-.04.26-.05.44-.05.86-.14,1.04.46.04.14.28.21.4.34.09.1.17.24.17.36,0,.07-.15.18-.26.21-.46.12-.93.24-1.4.35.02.18.04.36.06.54.15-.05.3-.1.45-.15.44-.15.89-.29,1.35-.36.33-.05.62-.07,1.03-.08.72-.01,1,.2,1.47.63.11.11.24.23.5.39-.03-.19.04-.28.2-.38.08-.05.47,0,.61.08.37.18,1.23.75,1.4.84,0-.3.21-.27.33-.29.81,0,3.44,2.13,4.25,3.81.31-.42.34-.7-.33-1.49-.46-.54-.82-.91-1.28-1.45-.1-.11-.38-.36-.24-.6.12-.23.3-.21.47-.19.23.03.32.1.5.21.19-.18.19-.33.12-.58.39.16.63.25,1.22.19-.12-.19-.08-.28.14-.34.61-.13,1.16,0,1.85.23-.16-.85-.63-1.36-1.31-1.74"/>
            <path class="cls-2" d="M132.59,112.36c.92-.04,1.25-.78,2.05-1.15.12-.06.24-.13.27-.21-.91-.01.61-1.03.6-1.64-.45.16-.29-.31-.23-.48.21-.61.21-.64.42-1.11.04-.09.26-.53.23-.7-.15.09-.28.09-.42.09-.02,0,.27-1.62.24-1.87-.16.07-.49.16-.47-.11.06-.69.22-1,.42-1.45-.12.03-.61.05-.42-.51.08-.23.35-.78.3-1.13-.71.24-.31-.53-.13-.82.1-.16.24-.31.55-.49-.23,0-.46,0-.69.09-.34.14-.48.21-.8.4-.72.43-.71.44-1.31-.16-.58.62-.84,1.22-1.24,1.81-.15.18-.4.04-.62-.36-.29.41-.3,1.19-.41,1.75-.08.39-.25.39-.29.39-.08.01-.15.03-.28-.13-.09.21-.09.22-.13.44-.07.38-.06.72-.08,1.08-.02.31-.11.87-.47.97.3.25.45.63.54,1.07.09.46.13.64-.21.79-.18.08-.37.08-.56.05,0,.16.08.49.19.7.25.5.48,1.31.18,1.69.46-.08.9.15,1.32.59.14.15.32.35.36.56.22.08.44.11.66.16.07-.19.2-.32.42-.33"/>
            <path class="cls-2" d="M162.05,113.52c-.02-.1-.65-1.56-.72-2.14-.12-.86-.04-1.66.12-2.48.02-.1.06-.25.01-.3-.79-.78-1.45-1.54-2.39-2.31-.46-.38-1.26-.92-3.15-2.02-1.06-.53-1.64,0-2.28.78-.43.52-.78,1.1-1.16,1.65-.1-.2-.09-.31.01-.51.14-.29.39-.61.06-.99-.49-.55-.93-1.14-1.38-1.73-.26-.34-.89-1.65-1.06-2.2-.24-.5-.73-.68-1.26-.74-.71-.09-1.44-.1-2.14-.24-.62-.12-1.21-.41-1.83-.55-.33-.07-.7-.01-1.05.05-.32.06-.63.22-.95.28-.31.06-.51.13-.56.5-.03.21-.18.47-.35.59-.83.56-1.43,1.22-1.59,2.3.73.14.69-.28.99-.65v.75c1.11-.01,2.16-.74,1.73-1.74.05-.02.11-.07.14-.06.44.19.81.17,1.19-.18.14-.13.46-.14.69-.11.96.12,1.9.31,2.7.91.71.53,1.3,1.12,1.59,1.99.49,1.45,1,2.9,1.56,4.33.1.24.29.49.79.46.36-.02.71-.09,1.06-.12.23,0,.1.23.08.34-.1.22-.53.36-.8.36-1.42,0-2.82.49-4.27.18-.32-.07-.8.01-1.04.22-.56.47-1.08.99-1.61,1.5.4.22.77.49,1.14.75.78-.67,1.94-.82,3.03-.56.57.13,1.31.31,1.84.46.77.23,1.2.38,1.95.69.49.2.96.47,1.39.77.4.27.79.28,1.2,0,.59-.38,1.15-.68,1.78-.98.42-.2.63.16.41.25-.4.28-.52.36-1,.69-.2.14-.42.26-.6.42-.57.5-.95.47-1.5.36-.36-.07-.66-.4-1.02-.48-.34-.04-.37.15-.15.36.36.38.73.75,1.07,1.15.46.55,1.12.62,1.74.83.29.1.56.25.85.31.42.08.87.19,1.27.11.99-.19,1.93-.45,2.78-1.12.66-.52.68-1.15.7-1.79,0-.16,0-.23-.03-.33"/>
            <path class="cls-2" d="M167.75,140.71c-.16-.7-.48-1.54-.67-2.27-.09-.35.01-.56.31-.72-.21-.52-.55-.93-.91-1.35-.01.05-.03.09-.04.15-.05.15-.29.21-.41.06-1.16-2.37-2.92-3.87-5.09-5.26.35-1.45-.24-2.31-1.6-2.77-.69-.05-1.06.55-1.1.64-.3.56-.05,1.32.21,1.77.36.62,1.04.91,1.63.89.29-.01.59.21.86.37,1.16.71,2.25,1.53,3.17,2.54.47.52.77,1,1.14,1.6.09.14.25.59,0,.72-.31.18-.51-.07-.86-.47-.47-.54-.88-.95-1.33-1.42-.46-.47-.9-.97-1.39-1.4-.56-.48-1.52-1.08-2.08-1.36-.9-.45-1.16-.54-2.01-.96-.14-.07-.34-.26-.33-.37.08-.72-.35-1.25-.68-1.8-.12-.19-.37-.32-.59-.44-.42-.24-.32.24-.48.35-.12.09-.28.15-.42.15-1.67,0-3.18.33-4.72,1.13-.29.15-.55.45-.87.31-.23-.1-.34-.53-.52-.81-.36-.57-.47-.93-.86-1.48-.5-.7-1.14-1.47-1.72-1.97-1.6-1.36-3.39-2.39-5.65-2.39-1.31,0-2.52.26-3.73.67-.33.11-.62.32-.94.45-.13.05-.34.07-.43,0-.08-.06-.07-.29-.03-.42.01-.04.03-.07.04-.1-.68.08-1.34-.16-1.95-.45-.03.22-.04.21-.1.47-.04.18-.35.36-.47.21-.17-.21-.28-.35-.51-.63-.55-.66-1.11-.97-1.83-1.3-1.15-.53-2.18-.85-3.65-.89-.06,0-.1,0-.15-.01-.23.22-.46.43-.66.69.75-.08,1.55,0,2.29.13.84.15,1.46.43,2.17.94.47.34.82.71,1.07,1.15.25.43.15.59.11.63-.13.13-.36.26-.87.06-.71-.24-.96-.37-1.59-.57-1.42-.46-2.87-.54-4.33-.31-1.36.21-2.72.92-3.77,1.79-.9.74-1.55,1.53-2.39,2.34-.17.16-.4.36-.59.36-.58-.02-.8-.44-.47-.92.46-.68.96-1.33,1.5-1.95.42-.48.59-.65,1.11-1.03.2-.15.71-.52.94-.63-.19-.14-.37-.28-.56-.4-.65.54-1.35,1.02-1.96,1.61-.71.69-1.29,1.52-1.96,2.25-.4.43-.31.37-.86.42-.19.59-.75,1.87-.47,1.98.83.33,1.4.42,2.22,0,.26-.14.58-.19.88-.23.21-.03.31-.01.4-.19.56-1.19.96-1.51,1.82-2.43.76-.82,1.73-1.53,2.67-1.96.62-.29,1.72-.51,2.39-.54,1.29-.05,2.65-.2,3.66.91.12.13.18.32.13.55-.03.17-.28.18-.42.17-.53-.02-.99-.09-1.57-.12-.87-.04-1.78-.04-2.62.17-1.27.32-2.59,1.02-3.56,2.03-.68.71-1.18,1.2-1.62,2.17-.22.48-.37.99-.58,1.48-.26.61-.69.72-1.2.32-1.23-.96-2.65-1.35-4.17-1.42-.65-.03-1.31-.04-1.96.03-1.06.12-1.57.19-2.56.5-1,.31-2.39,1.12-3.37,2.14-.7.72-1,.99-1.58,1.77-.45.61.03,1.73.76,1.79.71.06,1.02-.47,1.42-.87.24-.24.42-.49.69-.75.4-.4.89-.75,1.38-1.02.77-.44,1.26-.65,2.14-.87.73-.18,1.6-.24,2.34-.2.92.04,1.62.12,2.23.8.27.3.34.67.24.96-.08.22-.62.04-.84-.05-1.11-.46-2.26-.59-3.44-.44-.47.06-.97.2-1.38.44-.57.32-1.15.72-1.56,1.22-.51.63-1.24,1.53-1.03,1.64.1.06.39-.16.5-.27.52-.49.98-1.04,1.53-1.5,1.22-1.01,2.37-1.02,4.04-.66.68.15,1.34.56,2,.81.59.22,1.06-.06,1.03-.58-.06-1.15.67-2.09,1.8-2.2.42-.04.87.13,1.3.24.49.13.8-.02.92-.52.1-.42.01-.61-.03-.91-.03-.25-.07-.49-.09-.73-.07-.83.42-1.56,1.07-2.33.49-.59,1.42-1.27,2.08-1.66,1.27-.76,2.66-1.03,4.12-.7.65.15,1.29.37,1.93.57.94.29,1.6-.1,1.8-.98.02-.08.06-.17.11-.23.37-.47.85-.42,1.32.13.57.67,1.61.71,2.15.08.35-.42.61-.99,1.05-1.24.86-.48,1.8-.92,2.76-1.11,1.34-.26,2.96-.21,4.25.36.8.35,1.19.5,2.09,1.21,1.48,1.16,2.64,2.62,3.17,4.47.21.75.15.96.09,1.56-.04.4-.49.69-.78.58-.15-.06-.27-.2-.27-.46-.01-1.31-.56-1.94-1.17-2.84-.34-.51-.88-1.19-1.58-1.81-.8-.72-1.5-1.31-3.26-1.84-.77-.23-1.21-.2-2.04-.16-1.07.04-1.99.3-2.69,1.09-.37.42-.39,1.2-.04,1.46.31.24.74.35,1.19.13.43-.21.49-.62.44-1.03-.05-.44.1-.68.52-.8,1.46-.43,2.85-.18,4.09.63.96.63,1.82,1.37,2.49,2.35.47.68,1,1.22,1.23,2.14.06.25-.02.66-.06.93-.1.63.17,1.36,1.01,1.23.56-.09,1.07-.24,1.3-.76.13-.31.21-.53.41-.94.26.75.45,1.05,1.22,1.18.02,0,.09.21.11.26.22.58.93.96,1.66.63.77-.35,1.59-.34,2.41-.37,1.93-.08,3.59.52,5.07,1.78.81.69,1.43,1.45,2.03,2.28.62.86,1.04,1.92,1.15,3.05.05.54.1.87-.48,1.1-.48.19-.65.73-.57,1.15.08.41.37.86.95.86.39,0,.78.02,1.16.08.93.15,1.72-.32,1.93-1.19.08-.34.24-.47.61-.38.87.21,1.13-.07,1.29-.87.07-.35-.07-.7-.18-1.2M160.09,131.12c-.36.18-.72-.2-.97-.45-.3-.3-.42-.9-.3-1.11.24-.43.52-.53,1.03-.16.81.54.68,1.49.24,1.72M117.35,133.83c-.21.29-.4.32-.61.32-.34,0-.69-.1-1-.23-1.45-.63-2.94-.59-4.42-.26-.9.2-1.8.49-2.61.92-.68.37-1.24.82-1.78,1.33-.4.37-.63.58-.97.89-.09.08-.31.22-.5,0-.12-.09-.19-.2-.03-.52.19-.38.28-.58.48-.81.64-.73,1.11-1.3,2.02-1.91.75-.5,1.14-.75,1.98-1.05.65-.23,1.83-.41,2.54-.44,1.24-.05,2.48.02,3.65.49.41.17.75.35,1.11.61.25.18.29.47.14.67M150.81,132.04c-.21.05-.61.1-.69-.14-.15-.32.1-.55.25-.64.65-.36,1.31-.7,2.01-.94,1.03-.36,2.1-.49,3.2-.37.42.05.72.34.71.77,0,.51-.35.57-.74.58-.26,0-.51,0-.77,0-.8.01-1.8.06-2.65.3-.47.14-.87.33-1.32.43M165.12,143.09c-.25.43-1.07.41-1.12-.14-.04-.44-.04-.46-.11-.9-.18-1.13-.26-2.3-.85-3.31-.59-1.01-1.15-1.76-2.19-2.82-1.84-1.85-3.82-2.36-6.25-2.54-.88-.07-1.77.05-2.66.04-.31,0-.61-.17-.61-.52,0-.16.02-.34.3-.5.46-.25.84-.36,1.52-.44.5-.05,1.19-.05,1.69-.05,2.41-.01,4.38.95,5.69,1.84,1.05.71,2.24,2.18,2.96,3.2.93,1.32,1.27,2.15,1.72,3.63.22.72.3,1.82-.09,2.5M166.97,141.78c-.08.15-.28.32-.42.32-.17,0-.44-.14-.49-.29-.23-.6-.33-1.22-.52-1.84-.07-.43.14-.6.45-.73.42-.18.76.05.87.37.26.7.53,1.44.1,2.17"/>
            <path class="cls-1" d="M169.88,117.67c-.46-.67-.86-1.26-1.34-1.91-.32-.45-.62-.8-.91-1.29-.53-.87-.84-1.1-1.15-2.52-.15-.69-.1-1.41.03-2.07.12-.59.39-.83.78-.82.33.01.51.17.72.43.14.18.36.48.27.98-.09.44.76.95.78,1.89.25-1.69-.2-2.74-1.1-3.51.19-.02.4-.03.57.02.99.34,1.03,1.74.98,2.64-.04.83-.11,1.88-.05,2.26.05.38.15,1.42,1.23,2.1-.59-.88-.85-1.17-.76-2.58.08-1.27.04-1.62-.02-2.24-.09-.92-.32-1.31-.42-1.54-.1-.22-.32-.43-.32-.43.03.01.42.22.67.71.25.49.45.94.45,1.67,0,.58,0,1.19-.01,1.61-.05,1.06.16,1.59.62,2.24.38.54,1.18,1.08,1.45,1.23-1.16-1.51-1.52-2.15-1.59-3.2-.05-.77.05-1.47-.06-2.19-.22-1.45-.74-2.69-1.96-3.32-.18-.09-.56-.19-1.1-.24.29-.09,1.23-.25,2.24.57.47.39.69,1.07,1.05,1.43.89.89,1.06,1.31,1.46,2.06-.03-.05-.66-2.28-1.72-3.43-.59-.64-1.59-.94-1.62-.94-1.63-.5-3.15.66-3.54,2.19-.17.68-.21,1.31-.19,1.88.03.83.22,1.48.69,2.42.63,1.26,1.04,1.79,1.89,2.96.61.85,1.23,1.63,1.77,2.54.34.57.61.97.75,1.84.21,1.34-.59,1.65-1.45,1.49-1.37-.26-2.05-1.29-2.74-2.35-.62-.96-1.14-1.97-1.69-2.97-.1-.18-.2-.37-.31-.55-.1-.17-1.51-2.19-2.49-4.07-2.6.99-7.08,2.72-6.99,2.81.96,1.01,1.7,1.06,2.55,1.89.55.55.75.61,1.29,1.27.16.19.41.42.54.63.29.47.48.81.7,1.31.06.14.26.67-.02.64-.19,0-.34-.37-.4-.55-.2-.54-.35-.84-.85-1.03-.58-.22-1.25-.42-1.83-.62-1.08-.36-2.13-.41-3.25-.03-.41.17-.75.59-.8.65-.76.87-.75,2.25.15,3.22.67.72,1.22,1.08,1.77,1.89.3.44.54,1.18.64,1.97-.58.11-1.02.22-1.46.25-.37.03-.77.01-1.13-.09-.85-.25-1.57.02-2.13.58-.49.49-.83,1.13-1.25,1.72,1.28.31,2.12-.02,2.43-.23.61-.42,1.29-.6,1.99-.7,1.08-.16,2.18-.22,3.27-.34.54-.06.58-.56.51-.91-.07-.36-.37-1.11-.46-1.66-.04-.28-.07-.6.04-.82.19-.36.73-.39,1.2-.15.28.15.55.27.87.4.34.13.61.08.72-.41.24-1.03.22-1.39.78-2.55.1-.2.27-.99.35-1.36.05-.22.32-.22.32.01-.05.43-.08.83-.2,1.25-.12.42-.36.79-.47,1.21-.33,1.32-.35,2.02-.44,3.04-.09,1.04.25,2.07.85,2.83.67.86,1.59,1.55,2.72,1.87.87.24,1.71.59,2.04,1.54.39,1.15.89,2.31.81,3.53-.02.28-.03.39-.09.6.36.42.69.83.91,1.35.03-.02.06-.03.09-.05.24-.11.5-.33.58-.56.12-.36.14-.77.1-1.15-.11-.93-.3-1.86-.42-2.79-.07-.53-.03-1.07-.09-1.6-.07-.63-.05-1.32-.85-1.59-.26-.09-.5-.25-.74-.4-.85-.57-1.16-2.41-.49-3.22.64-.77.79-1.72,1.09-2.61.17-.52.38-.7.8-.35.61.51,1.87.63,2.64.45.64-.15,1.15-.48,1.45-1.22.36-.86.08-2.11-.44-3.08-.44-.82-.69-1.08-1.23-1.85"/>
            <path class="cls-1" d="M171.04,110.51c.08.35.19.74.22,1.39.02.47-.05,1.18.07,1.6.26.94,1.03,1.82,1.03,1.82,0,0-.62-1.29-.38-2.37.14-.62.02-.93-.16-1.2-.13-.2-.32-.58-.79-1.24"/>
            <path class="cls-2" d="M149.23,114.64c-.4,0-.95,0-.48-.85-.93-.05-1.49.3-2.04.19-.19-.04-.31-.06-.38-.32-.03-.1.03-.32.05-.43-.19.09-.36.11-.45.04-.26-.19-.1-.33,0-.46.12-.17.25-.32.4-.44-.36-.26-.74-.53-1.14-.75-.23.22-.46.45-.7.66-.33.29-.7.57-1.1.73-.16.06-.29,0-.48-.19-.13-.13-.31-.32-.56-.35-.48,1.05-1.44,1.28-1.92.53-.29.09-.59.29-.88.72-.2.3-.47.49-.75.5-.21,0-.3-.03-.39-.18-.19.11-.47.39-.58.54-.27.38-.45.81-.31,1.36.09.36.09.74-.02,1.14-.1.34-.24.69-.56.96.02.24.04.48.07.72.09-.07.19-.14.3-.2.26-.15,1.02-.4,1.54-.31.63.1,1.24.24,1.65.87.29-.34.42-.48.33-.86.61.15,1.02.64,1.32.9.05-.14.1-.29.23-.43.13-.17.31-.21.48-.23.41-.05.56.08.94.41.57-.64.82-.69,2.1-.17-.07-.55.27-.83.89-.68.62.15.82-.12,1.27-.61.17-.18.58-.29.78-.45-.47-.43.14-.73.29-.79.61-.27,1.08-.54,1.45-1.19.15-.26.43-.34.56-.45-.94-.22-1.25.06-1.9.08"/>
          </g>
          <g>
            <path class="cls-1" d="M162.03,108.59c.35-.34,1.37-1.1,2.03-1.25l-.43-.77c0,.4-.23.71-.4.85-.1-.26-.14-.55-.03-.8-.19.17-.55.39-.81.5.28.07.48.16.63.4-.3.14-.87.34-1.27-.15-.26-.32-.29-.75.02-1.02.1-.09.27-.14.42,0,.15.14-.03.4-.16.46.29.05.92-.34.66-.67-.21-.26-.76-.16-1.03.02.17-.33.26-.88-.01-1.06-.35-.24-.7.42-.69.65.17-.18.42-.25.52-.17.08.07.09.31-.07.47-.26.28-.79.21-1.11-.04-.36-.27-.46-.76-.11-1.33.18.18.43.59.42.87.2-.35.34-.54.64-.83-.33.08-.7-.1-.91-.22.23-.18.55-.32.91-.27l-1.11-.85c.15.34.05.64-.07.91-.17-.18-.43-.48-.44-.81-.21.36-.36.55-.64.83.26-.07.71.06.94.18-.46.49-.99.42-1.31.21-.35-.22-.68-.65-.46-1.05.11-.19.41-.14.5-.08.1.07.14.29.01.5.26-.18.68-.58.36-.85-.24-.21-.65-.02-.92.24.1-.31-.02-.87-.34-.95-.4-.11-.55.57-.42.83.02-.13.22-.42.39-.31.17.11.12.35.05.47-.2.36-.64.4-1.01.2-.59-.32-.62-.88-.35-1.18.28.08.42.25.56.51.04-.28.16-.68.27-.91-.22.17-.51.21-.79.18.09-.21.33-.5.72-.61l-.85-.22c.03.65-.5,1.83-.68,2.29,3.26,1.87,3.62,2.12,6.34,4.86"/>
            <path class="cls-1" d="M159.02,101.95c-.3.18-.51.26-.63.47-.12.21-.3.89-.35,1.15.24-.18.77-.67.89-.86.11-.2.05-.6.1-.76"/>
            <path class="cls-1" d="M162.94,104.95c-.11.33-.15.56-.33.72-.18.16-.81.48-1.06.58.13-.28.49-.9.66-1.05.17-.15.58-.17.73-.26"/>
          </g>
          <g>
            <path class="cls-2" d="M122.4,99.43c.53.08,1.15.22,1.68.27.75.07,1.4.08,2.16.1.9-.12,1.38,1.1.8,1.86-.44.58-1.03,1.29-1.86.93-.15-.04-.26-.24-.54-.08-.46.4-.79.29-1.11-.05-.13-.07-.32-.15-.44-.11-.67.27-.98-.04-1.3-.34-.52-.48-.71-1.02-.7-1.62.02-.67.36-.92,1.3-.98"/>
            <path class="cls-2" d="M123.48,104.04c-.41.07-.52.19-.72.46-.06.09-.3.03-.47-.02-.18-.06-.45-.11-.48-.32.02-.63.84-1.29,1.43-1.09.3.1.32.34.33.53,0,.17,0,.47-.1.44"/>
            <path class="cls-2" d="M120.6,100.97c-1.05,0-1.31-.22-1.43-.81-.04-.21-.05-.47-.03-.78,1.07.05,1.38.19,1.3.79-.04.3-.04.4.15.8"/>
            <path class="cls-2" d="M124.32,105.45c-.07.44-.44.67-.78.62-.25-.03-.63-.4-.64-.63-.02-.4.27-.74.78-.71.44.03.74.18.65.72"/>
            <path class="cls-2" d="M127.54,101.77c.93,0,1.16-.21,1.27-.76.04-.19.04-.44.02-.73-.95.05-1.06.18-1.08.75-.02.52-.07.54-.21.74"/>
            <path class="cls-2" d="M119.06,106.87c-.95-.27-1.24-.14-1.5.37-.09.18-.16.41-.22.7.98.23,1.13.13,1.31-.41.16-.49.26-.47.41-.66"/>
            <path class="cls-2" d="M128.07,107.43c.84-.24,1.09-.12,1.32.32.08.16.14.36.2.62-.86.2-.99.11-1.15-.36q-.14-.43-.36-.58"/>
            <path class="cls-2" d="M123.71,109.96c.65.62.68.9.41,1.34-.1.15-.24.31-.44.5-.63-.66-.62-.82-.28-1.21.31-.36.23-.36.32-.62"/>
            <path class="cls-2" d="M122.39,105.3c-.07.39,0,.53.19.8.06.08-.07.28-.17.42-.11.15-.24.38-.44.34-.56-.21-.9-1.17-.53-1.64.19-.25.41-.19.58-.14.16.05.42.15.37.23"/>
            <path class="cls-2" d="M124.8,104.78c-.11-.38-.23-.48-.51-.64-.09-.05-.06-.28-.03-.45.03-.18.06-.44.25-.49.6-.05,1.31.67,1.19,1.25-.07.3-.29.35-.47.37-.16.02-.45.04-.43-.05"/>
            <path class="cls-2" d="M123.24,106.58c.37.15.52.11.82,0,.09-.04.26.13.37.26.12.14.31.32.23.5-.33.5-1.34.62-1.72.16-.2-.24-.09-.44,0-.6.08-.14.24-.38.3-.31"/>
            <path class="cls-2" d="M124.69,106.16c.27-.24.29-.38.3-.68,0-.09.21-.16.35-.2.16-.05.38-.13.5.02.29.48,0,1.37-.53,1.49-.27.06-.4-.11-.5-.24-.09-.13-.22-.36-.14-.38"/>
            <path class="cls-2" d="M117.88,104.85c.21-.37.5-.8.69-1.19.26-.55.45-1.04.67-1.6.14-.72,1.33-.71,1.84-.05.39.51.85,1.17.31,1.69-.08.1-.28.13-.21.38.23.47.04.69-.34.83-.1.07-.21.19-.21.3.05.58-.3.73-.65.88-.56.25-1.08.23-1.6.04-.58-.22-.7-.55-.5-1.28"/>
            <path class="cls-2" d="M128.57,106.96c-.54.06-1.05-.06-1.51-.43-.29-.23-.59-.45-.4-1,.03-.1-.05-.24-.13-.33-.33-.23-.46-.48-.12-.87.13-.23-.06-.3-.11-.42-.38-.63.22-1.14.71-1.53.65-.51,1.78-.22,1.74.5.08.59.13,1.1.25,1.69.08.41.25.89.36,1.3.02.74-.18,1.03-.79,1.1"/>
            <path class="cls-2" d="M124.53,110.38c-.28-.39-.41-.83-.32-1.35.06-.32.1-.65.61-.73.09-.02.17-.14.21-.24.04-.35.18-.56.63-.47.23,0,.21-.18.28-.26.32-.56.99-.32,1.5-.1.68.28.94,1.28.37,1.55-.43.31-.8.57-1.21.91-.29.24-.59.58-.86.83-.57.33-.89.3-1.2-.14"/>
            <path class="cls-2" d="M119.11,107.82c.3-.42.69-.72,1.25-.81.35-.06.69-.14.96.34.05.08.2.12.32.12.37-.09.62-.03.7.46.08.24.25.15.36.19.68.12.68.88.65,1.47-.04.79-.95,1.41-1.43.93-.47-.32-.87-.6-1.36-.89-.34-.2-.8-.38-1.15-.56-.54-.46-.62-.78-.29-1.26"/>
          </g>
          <g>
            <path class="cls-2" d="M167.45,99.16c-.03-.58-.63-1.03-1.28-1.1-.15-.02-.32,0-.47-.06-.14-.04-.3-.15-.26-.41.38-.04.81-.04,1.1,0,.39.04.53.16.92.33-.12-.57-.75-1.03-1.4-.99-.14,0-.28.03-.43.03-.17,0-.47-.03-.49-.38.42-.08.82-.16,1.14-.16.39,0,.58.06.99.19-.18-.55-.8-.91-1.44-.8-.15.03-.3.04-.47.08-.16.03-.41.09-.49-.21,0,0,0,0,0,0,.44-.14.76-.28,1.09-.33.38-.05.64,0,1.06.07-.25-.52-.89-.82-1.51-.63-.14.05-.29.08-.46.14-.15.05-.39.14-.5-.18.41-.21.63-.33.93-.43.36-.11.66-.16,1.07-.04-.31-.49-.97-.69-1.57-.42-.14.06-.3.14-.47.21-.14.06-.32.07-.44-.14,0,0,0,0,0-.01.26-.18.51-.36.74-.45.36-.15.66-.21,1.09-.24-.38-.44-1.08-.42-1.67-.09-.06.03-.14.07-.23.12-.15.08-.39.14-.53-.09.54-.47,1.23-.61,1.55-.6,0-.03-.5-.29-.9-.1,0-.1-.01-.24-.17-.38,0,.33-.46.65-.75.87-.53.4-1.08.75-1.78.89-.32.06-.49,0-.57-.1-.11-.14-.02-.34.25-.34.58-.02.93-.43,1.34-.73.16-.12.27-.26.54-.27-1.4-.23-2.22-.67-3.11.43-.17-.49.04-.75.31-.94.28-.2.63-.31.92-.5.46-.3.61-.96.35-1.34-.25.22-.14.4-.43.88-.25.34-.45.38-.6.32.04-.15.24-.48.3-.67.1-.29.11-.27.15-.61,0,0,.05-.6-.17-.64-.16.2-.19.24-.33.59-.13.33-.48,1.27-.85,1.11.1-.32.12-.35.22-.66.07-.23.1-.45.13-.75.01-.15.03-.45-.17-.57-.09.1-.35.55-.4.66-.19.5-.25.59-.45,1.18-1.43-.92-2.74-1.71-3.99-2.58-1.3-.9-2.56-1.85-4.01-2.49.57.63,1.22,1.09,1.79,1.62.3.27.49.4.67.41.37.03.49.16.59.24.22.15-.12.15-.36.16.22.18.34.36.53.36.74,0,.71.1.79.16.4.3-.25.18-.44.21.15.21.41.38.56.4.27.04.6-.06.75.11.35.25-.08.18-.45.21.27.25.44.48.8.47.42,0,.53-.1.81.13.48.33-.34.27-.74.28.31.31.46.43.68.43.34,0,.81-.1,1.02.08.26.24-.2.27-.83.26.14.39.12.69-.43,1.11-.41.32-.66.74-.74,1.2-.16,1.01-.74,1.83-1.39,2.47-.62.6-1.02,1.05-.98,2,0,.26.12.69.3.77.25.1.62-.02.92-.12.36-.12.69-.3,1.04-.46.07-.05.17-.03.14.15-.08.43-.16.85-.22,1.28,0,.06-.02.23-.03.3,0,.03.07.06.11.07.46.21,1.24-.26,1.33-.82.08-.57.93-1.48,1.42-1.51,1.11-.08,2.02-.53,2.65-1.48.07-.1.09-.23.13-.34.02-.14.14-.14.15.04-.02.18-.02.37-.05.55-.14.74-.71,1.1-1.28,1.47-.2.13-.47.34-.49.54-.08.65-.28,1.21-.72,1.73-.29.35-.79.89-1.14,1.09.18-.02-.06.67-.06.67.27-.17.5-.15.64.13-.04-.52,1.21-.9,1.17-.85-.09.43.07,1.21-.14,1.45.27,0,.38,0,.46.38.06-.29.23-.51.45-.34.64.39,1.17.89,1.61,1.24.13.1.07.38-.26.43.55.19,1.76-.1,1.76-.1,0,0,.12.7-.08.88.36.28.84.51,1.06.76.26.29.48.56.58,1,.28-.5-.06-1.22-.57-1.62-.23-.18-.46-.36-.33-.8.32.23.59.44.79.66.26.29.5.58.59.94.28-.5-.07-1.16-.58-1.56-.23-.18-.56-.35-.42-.8,0-.01.01-.03.02-.04.31.23.63.43.82.65.26.29.5.47.61.91.29-.5-.09-1.12-.6-1.52-.23-.18-.54-.39-.39-.84.31.2.61.38.81.58.27.28.49.49.62.87.26-.52-.1-1.12-.64-1.49-.12-.08-.25-.21-.36-.31-.04-.04-.26-.16-.13-.54.32.2.64.37.84.57.28.27.53.53.66.9.25-.52-.16-1.15-.7-1.51-.11-.08-.25-.14-.36-.24-.13-.11-.36-.19-.3-.61.35.16.7.3.93.47.31.23.61.44.78.77.18-.55-.31-1.08-.89-1.38-.13-.07-.29-.12-.42-.21-.13-.1-.26-.19-.26-.57.34.09.72.24.96.36.34.18.65.36.89.67.09-.57-.47-1.06-1.09-1.25-.13-.04-.28-.12-.41-.19-.13-.06-.29-.29-.28-.49.35.06.79.15,1.04.25.36.14.58.28.91.55.03-.58-.53-.97-1.17-1.11-.11-.02-.25-.04-.37-.07-.12-.02-.37-.22-.34-.51t0,0c.37.03.72.03.99.11.37.11.61.22.96.46M156.56,95.18c-.11-.17-.69.54-.61.27.23-.55.37-1.01.6-1.42.1-.19.24-.26.48-.37.19,0-.06.49.08.58.37.29.79.62,1.22.97-.46.3-1.5.27-1.78-.03M160.78,93.13c-.1.13-.25.18-.41.08-.19-.12-.06-.27.05-.4.22-.26.61-.4,1.25-.22.77.22-.4-.09-.89.53"/>
            <path class="cls-1" d="M162.41,91.74c.22.02.47-.13.54-.29.07-.17.06-.52-.02-.59-.02-.02-.12-.04-.21.1-.16.24-.1.44-.12.55-.02.11-.19.23-.19.23"/>
            <path class="cls-1" d="M163.62,91.33c.06.04.06.25-.04.35-.1.1-.23.17-.46.11.23-.11.15-.25.3-.37,0,0,.15-.13.2-.09"/>
            <path class="cls-1" d="M161.6,91.64c.25,0,.56-.17.64-.38.09-.22.05-.7-.02-.78-.02-.01-.14-.05-.25.14-.2.32-.12.58-.15.72-.03.14-.22.3-.22.3"/>
          </g>
        </g>
        <g>
          <g>
            <rect class="cls-1" x="131.51" y="135.38" width=".02" height=".02"/>
            <g class="cls-3">
              <path class="cls-2" d="M131.52,135.39s0,0,0,0h0s0,.01-.02.02c0,0,0,0,.01,0"/>
            </g>
          </g>
          <path class="cls-2" d="M124.43,151.62c.29.13.68.32.97.44.17.07.35.14.52.21,1.96.79,3.99,1.29,6.06,1.61,2.02.31,4.06.37,6.09.21,1.88-.15,3.45-.64,5.22-1.24.81-.29,1.41-.55,2.11-.95.34-.18.67-.41,1.04-.61.1.31.13.55-.21.74-.35.21-.58.33-.95.5-.9.42-1.76.81-2.78,1.1-.92.27-1.56.45-2.31.58-.92.16-1.65.25-2.7.29-1.61.07-3.18.03-4.76-.14-1.48-.19-2.87-.48-4.35-.86-.61-.16-1.5-.47-2.09-.69-.56-.24-.85-.39-1.42-.64-.17-.09-.24-.12-.37-.25-.08-.09-.11-.25-.07-.32"/>
          <path class="cls-2" d="M148.24,153.26c-.24.15-.52.35-.76.5-1.12.7-2.36,1.14-3.6,1.59-.63.23-1.28.41-1.93.6-1.33.36-1.97.47-3.8.65-.65.06-1.74-.09-2.79-.34,2.33.03,4.28-.2,5.51-.49,1.7-.39,3.37-.9,4.93-1.71.52-.27,1.06-.61,1.51-.97.27-.27.76-.04.92.17"/>
          <path class="cls-2" d="M124.04,154.18c-.75-.52-1.28-1.35-1.33-1.4.5.15,1.1.57,1.7,1,.67.39.93.54,1.74.83.96.34,1.67.54,2.65.8,1.36.36,1.29.31,2.66.62.62.12,1.49.2,2.7.25-1.63.3-2.86.13-4.02-.08-.82-.15-2.16-.35-3.17-.69-1.72-.57-2.18-.8-2.93-1.32"/>
          <path class="cls-2" d="M151.93,151.16c-2.51,3.43-5.15,4.43-7.68,5.08-1.59.41-3.63.62-4.32.65,1.88-.36,3.62-.86,4.95-1.42,1.35-.57,2.16-.93,3.32-1.75.09-.09.25-.2.43-.12.58.24,2.57-1.61,3.3-2.44"/>
          <path class="cls-2" d="M131.83,157.4c-.37-.05-1.53-.45-1.69-.67,1.63.36,3.12.36,4.64.4.2.01.93-.02,1.13-.03.56-.02,1.38.31,1.86.34-.49.13-2.39.25-3,.2,0,.03-1.63-.06-2.94-.23"/>
          <path class="cls-2" d="M146.11,150.81c-1.11.61-2.02,1.04-3.17,1.53-.16.07-.43.15-.6.11-.22-.07-.29-.25-.23-.45.29-.09.49-.17.75-.27,1.08-.38,1.69-.68,2.75-1.11.1-.04.54-.31.78-.44.01.43-.18.58-.28.63"/>
          <path class="cls-2" d="M146.18,149.73c-.15.1-.69.36-.86.44-.81.38-.91.4-1.7.77-.29.13-1.4.53-1.27-.02,1.39-.59,2.74-1.1,4.09-1.67.02.18,0,.37-.26.48"/>
          <path class="cls-2" d="M149.45,146.24c1.18-.26,2.95-.31,4.12-.21,0,.41,0,.6-.01.94-1.25-.18-2.92-.35-4.12-.53-.12-.02-.08-.19.02-.2"/>
          <path class="cls-2" d="M151.64,148.31c.84.08,1.39,0,1.11.71-.05.12-.19.49-.23.61-.19.57-.57.54-1.09.5.06-.61.15-1.22.21-1.82"/>
          <path class="cls-2" d="M145.58,148.64c0,.27-.41.44-1.01.71-.4.18-.88.42-1.24.47-.24.03-.5.1-.6-.16,1.11-.42,1.83-.73,2.73-1.15.12-.07.12.02.12.12"/>
          <path class="cls-2" d="M147.72,150.37c1.38.19,2.63.37,3.82.53-.02.15-.05.26-.29.22-.65-.08-1.51-.19-2.16-.28-.34-.05-.77-.1-1.11-.15-.22-.03-.26-.15-.26-.32"/>
          <path class="cls-2" d="M148.81,147.03c.24-.03.54-.06.8-.03.93.13,2.78.29,3.71.44q-.07.19-.16.35c-1.28-.18-3.04-.42-4.32-.6-.14-.02-.13-.15-.03-.17"/>
          <path class="cls-2" d="M150.6,148.95c-.22-.22-.43-.45.06-.76-.77-.11-1.36-.21-2-.3-.49-.08-.73-.01-.79.46-.05.41-.07.82-.13,1.27.23.03.43.06.56.08,0-.45-.03-.84,0-1.22.02-.2-.01-.5.33-.52.54.18.59.61.55,1.09-.01.15,0,.3.03.45.02.1.16.29.24.3.34.07.58.12,1.07.19-.6-.46-.24-.77.07-1.04"/>
          <path class="cls-2" d="M133.52,152.44c-.93-.17-1.86-.34-2.86-.53,0-.38.87-.2,1.52-.08.74.14,1.34.27,1.34.6"/>
          <path class="cls-2" d="M128.84,152.54c-.83-.16-1.67-.48-2.39-.74,0-.58,2.42.17,2.39.74"/>
          <path class="cls-2" d="M131.16,152.71c.79.14,1.51.27,2.23.39,0,.34-.82.24-1.28.16-.45-.08-1.07-.24-.95-.55"/>
          <path class="cls-2" d="M128.5,151c-.31.35-.73.25-1.15.19-.07-.01-.57-.14-.52-.42.02-.1.21-.13.31-.11.23.04.44.14.66.2.21.05.43.09.69.14"/>
          <path class="cls-2" d="M150.3,152.07c-.45-.07-.76-.1-1.21-.17-.13-.03-.13-.11-.13-.3.46.05,1.03.17,1.48.22,0,.17-.07.25-.14.25"/>
          <path class="cls-1" d="M154.44,144.81c-.43,0-1.57,0-2.25,0-.3,0-.23-.25-.23-.44.01-.78,0-4.86,0-5.22h-.22c-.02.28-.03.72-.03,1.02,0,.26-1.61,1.4-2.29.99-.31-.19-.29-.39-.32-.65-.05-.49-.26-.92-.72-1.11-.65-.26-2.1.49-2.54,1.07-.44.57-.44,4.92-.19,6.09-.07.02-.13.02-.17.01-.23-.06-.42-.41-.65-.76-.02-.03-1.19-1.58-1.24-1.67-.36-.58-.9-1.37-1.29-1.93-.41-.6.1-.64.73-.87.54-.2.82-.49,1.35-.49.69,0,.47-.24.28-.22-.51,0-.64-.31-.73-.51-.29-.64-.86-1.8-1.11-2.37-.02-.04-.23-.4-.39-.76-.41-.92-.88-2.02-1.32-2.92-.3-.62-.6-1.2-.57-1.89.01-.3.01-.82,0-1.01-.87-.24-.98-.07-1.6.42-.32.26-.99.22-1.2.06.13.39.6.56.73.61.61.2.86-.03,1.51-.13.18-.03.39-.07.39.07,0,.09.01.23,0,.38-.07,1.01-.39,1.92-.72,2.88-.34.96-.82,1.86-1.25,2.78-.11.24-.2.52-.37.29-.28-.37-2.42-3.72-2.52-4.21-.07-.31.31-.32.6-.39.76-.2.81-.92,1.46-1.14.17-.08.07-.25-.27-.21-.69.09-1.01-.52-1.28-.95-.42-.66-.84-1.37-1.16-2.04-.09-.19-.07-.45-.07-.69,0-.24.01-.22.03-.59-.31.28-.86.21-1.17.48-.44.4-.4,1.63-1.45.72.14.19.26.77,1,.76.38,0,.68-.09.98-.54.2-.3.44-.33.33-.1-.02.05-.56,1.45-.78,1.95-.27.62-.52,1.28-.86,1.74-.11.15-.15.27-.45.34-.06.02-.37.02-.37.11,0,.1.04.05.28.09.69.12.32.6-.2.95-.02.01-.86.72-.86.72-.45.35-.7.44-1.06,0-.55-.68-.99-1.5-1.48-2.22-.44-.65-.57-1.37-.55-2.18.01-.46,0-.76-.01-1.34-.68.07-1.04.49-1.41.84-.43.4-.59.93-1.2.99.44.37,1.09.17,1.76-.37.2-.16.52-.22.54.25,0,.21.02.39.01.6-.01.29-.03.37-.08.53-.21.63-.48,1.17-.78,1.86-.23.54-.45,1.2-.81,1.48-.15.12-.34.24-.59.26-.48.03-.36.24-.28.24.51.14.93.25,1.34.37.47.14.8.76.58,1.11-.04.07-.09.14-.14.21-.15.19-.87,1-1.77,1.81-.79.72-1.74,1.45-2.31,1.82-.75.49-2.97,1.64-3.74,2.09-.58.34-1.28.95-1.84.95-.14,0-.27-.19-.26-.53.03-.97.06-2.9.05-5.12-.51,0-.44.52-.98.58-.39.05-.47.18-.48.31-.05.58-.05.91-.05,1.14.11.02.26-.07.34-.13.56-.38.48-.21.96-.29.02.66,0,2.92-.04,3.59,0,.15-.05.44-.34.44h-1.81c-.13-.01-.13.23.13.32.18.05.43.03.63.04.27.02.51.23.58.32,1.08,1.15,3.2,3.08,3.66,3.45.3.24.63.49.97.94.33.44,1.31,2.04,1.54,2.21,0,0,0,0,0,0,0,0,0,0,0,0,0,0,.01,0,.02,0,0,0,0,0,0,0,.57.21,1.05.58,1.58.85.84.42,1.68.83,2.55,1.16.73.28,1.39.47,2.14.68.97.27,2.02.6,3.01.74,1.2.17,1.83.24,2.74.25,1.29.01,2.58-.02,3.86-.13,1.06-.09,2.11-.31,3.16-.53.69-.14,1.37-.33,2.03-.57.61-.22,1.17-.49,1.76-.77.56-.27,1.54-.91,2.08-1.22-.12-.22-.5-.29-.79-.08-.59.34-.7.48-1.66.91-.88.39-1.71.79-2.64,1.02-1.36.34-2.56.57-4.19.79-1.69.14-3.38.15-4.99,0-1.8-.2-2.88-.49-4.6-.98-.73-.17-1.46-.44-2.15-.72-.79-.32-1.68-.78-2.15-1.15-.67-.52-.87-1.25-.83-2.81,0-.42.17-.6.41-.54.14.04.28.08.42.13.48.15,1.12.39,1.6.56,1.49.55,2.86.91,4.33,1.17.44.08,1.01.17,1.67.21,0-.17.06-.28-.03-.34-.1-.07-.47-.07-.45-.34,0-.15.4-.15.54-.15.36.01.61.05.99.09.13.04.06.67.04.85.58.02,1.12.06,1.74.05.21,0,.6-.03.62.18.02.2-.03.15-.89.19-.1,0-.09.13,0,.13.11,0,.45.07.54.16.26.26.21.58.2.97-.02.62.35.58.83.6,1.01.04,1.79-.04,2.5-.1.33-.06.39-.27.38-.48-.85,0-2.58.2-2.64.1-.13-.04-.1-.12-.13-.26-.02-.14.11-.14.53-.15.55-.02.89-.07,1.41-.09.4-.01.52-.14.52-.34-.78,0-1.57,0-2.53,0-.11,0,.01-.46.24-.46,1.85,0,1.94-.21,2.85-.26.22-.01.67.13.68.54,0,1.04.37.96.67.91.06-.01.57.04.48-.67-.01-.4-.22-.9-.02-1.17.24-.33.77-.44,1.26-.66.4-.18.24-.28.15-.5-.11-.27.04-.45.28-.54.61-.21,1.2-.44,1.8-.68.26-.1.64-.26.89-.37.57-.25.59-.55.94.15.03.06.04.12.09.28.28-.18.7-.31.72-.48.08-.73.55-1.2.96-1.71.4-.49.87-1.13,1.59-1.18.24-.02,4.58.02,4.94,0,.14-.23.36-.55.04-.55ZM134.4,140.22c-.2-.03-.31.13-.25-.64.08-.97.28-4.39.3-4.73.05-.57.15-.52.16.24,0,.15.03,3.62.05,4.48,0,.15.12.68-.26.66ZM132.69,139.16c-.13-.12-.09-.31.03-.6.06-.14,1.16-3.72,1.25-3.89.09-.28.21-.49.18.13,0,.12-.28,4.03-.32,4.44-.01.17,0,.76-.19.67-.14-.06-.79-.61-.95-.75ZM133.4,140.55c-.64.2-1.03.28-1.52.4-.31.11-.28-.04-.17-.22.19-.4.29-.62.54-1.12.05-.1.12-.22.21-.16.34.24.62.5.96.8.18.16.04.27-.02.29ZM133.37,133.07c.34-.84.67-1.64,1-2.45.15-.43.23-.17.24-.01.03.43.02,1.96.02,2.09,0,.15-.13.27-.27.33-.25.11-.54.25-.89.32-.12.02-.22-.06-.11-.29ZM131.63,136.1c.24-.09.04-.17-.36-.2-.17,0-.05-.06.05-.14.18-.15,1.2-1.01,1.36-1.14.17-.14.67-.53.91-.46.22.06.13.24.11.35-.02.12-1.03,3.44-1.29,4.08-.07.17-.17.14-.22.09-.5-.6-.97-1.11-1.36-1.82-.17-.31.22-.53.82-.76ZM129.94,137.03c.34-.25.49.03.68.25.46.57.94,1.13,1.38,1.7.08.1.12.31.07.42-.29.61-.51,1.04-.83,1.62-.14.25-.35.17-.5-.1-.35-.63-1.25-2.58-1.32-2.87-.03-.14-.04-.21.03-.34.08-.15.3-.53.5-.68ZM131.09,142.27c.19.29.29.39-.09.4-.26,0-.76,0-1.02.03-.29.03-.35-.16-.39-.49,0-.07-.42-2.92-.49-3.52-.05-.25.14-.24.23,0,.32.85,1.51,3.19,1.76,3.58ZM127.99,143.19c-.16.05-.29.12-.35.08-.09-.07.03-.21.12-.36.1-.16.04-.05.14-.22.08-.12.16-.04.16.11,0,.15.06.35-.07.39ZM127.3,143.21c-.12.14-.23.17-.32.17-.65.03-1.12.05-1.41,0-.3-.05-.38-.17-.15-.47.07-.09.29-.4.41-.6.12-.2.24-.44.42-.67.05-.07.06-.13.12-.14.12-.03.27.05.37.09.33.11.55.15,1.06.35.26.1-.02.44-.16.7-.13.23-.24.45-.34.57ZM128,139.13c.03.35.01,1.29.01,1.55q0,.36,0,.72c0,.08.01.23-.09.26-.12.04-.33-.05-.42-.07-.3-.08-.5-.12-.79-.27-.28-.14-.04-.43.01-.56.25-.62.43-1.05.72-1.66.07-.14.2-.61.38-.5.16.12.15.39.16.52ZM127.28,135.95c-.48.05-.46-.25-.39-.42.25-.7.56-1.37.85-2.05.06-.17.14-.2.14-.03,0,.44.03,1.86.02,1.96-.01.58-.22.5-.62.54ZM120.12,148.65c-.56-.48-1.8-1.62-2.6-2.36-.14-.13-.86-.78-.79-1.05.09-.23.37-.14.93-.15.96,0,.3,0,.96,0,.76,0,1,.4,1.18.62.03.03.05.06.07.09.26.31.46.62.65,1.25.17.54.98,2.78-.4,1.6ZM122.56,150.66c-.15.08-.36-.22-.5-.39-.27-.32-.35-.67-.54-1.25-.31-.94-.55-2.06.03-1.7.36.22.35.2.62.4.28.24.29.74.31.84.12.63.14.93.16,1.55.01.32.07.47-.07.54ZM122.4,147.31c-.37-.13-.74-.46-1.43-1.03-.42-.35-1.18-1.18-.83-1.19,1.12-.03,1.62.02,2.31.02.57,0,.53.17.58.52.06.39.02.96.05,1.35.03.4-.3.5-.67.34ZM124.27,147.98c-.18-.06-.37-.15-.6-.25-.22-.09-.25-.4-.26-.57-.06-.8-.06-1.17-.14-1.98-.03-.28-.16-.38-.38-.38-.95,0-1.64.02-2.59,0-.35,0-1.47,0-1.83,0-.2,0,.5-.47.57-.51.93-.54,3.39-1.88,4.1-2.34.76-.49,1.72-1.34,2.46-2.02.69-.63,1.13-1.14,1.48-1.5.28-.36.39-.03.33.15-.14.38-.12.37-.23.6-.2.42-.42.83-.61,1.25-.39.85-1.63,2.7-1.68,2.81-.05.12-.57-.01-.26.35.09.1.68.14.83.19.51.14,1.36.24,1.4.58.02.25-.2.8-.2.8,0,0-1.07,2.11-1.46,2.75-.16.26-.21.31-.94.07ZM125.5,148.33c-.2-.07.02-.29.06-.39.1-.26.25-.55.38-.78l1.01-2.13c.13-.19.19-.41.45-.36.4.09.39.31.28.67-.13.4-.36.89-.55,1.31l-.57,1.1c-.07.13-.15.26-.22.36-.18.5-.65.27-.82.21ZM126.51,148.42c-.06-.18.15-.49.27-.75h.01s.44-.89.44-.89c.07-.1.34-.69.42-.86.04-.08.15-.37.17-.43.23-.56.28.09.23.26-.02.07-.59,2.08-.74,2.47-.06.17-.18.53-.33.48-.15-.05-.44-.13-.48-.27ZM126.86,149.85c-.34-.18-.38-.49-.15-.8.39.13.78.26,1.19.41-.21.5-.58.65-1.04.39ZM128.18,148.59c0,.21,0,.51-.18.5-.09,0-.32-.08-.54-.17-.11-.08-.16-.13-.11-.26.23-.59.36-1.12.55-1.69.04-.12.12-.42.15-.47.11-.22.13.14.13.38,0,.43.04,1.27.02,1.71ZM128.34,135.17c-.01-.5-.04-1.14-.06-1.64,0-.07,0-.16,0-.24,0-.24.06-.09.09-.04.18.23.57.86.76,1.16.22.37.41.62.6,1.01.11.24.01.38-.25.39-.08,0-.15.02-.23.02-.87.06-.89.21-.92-.67ZM128.53,139.45c0-.05-.04-.79-.04-.88,0-.19.23-.09.27.04.06.16.36,2.12.43,2.73.01.1.05.23-.13.22-.07,0-.14.01-.27.01-.23,0-.19-.42-.2-.77-.01-.4-.04-.93-.06-1.36ZM128.68,142.48c-.02-.35.02-.51.17-.59.06-.03.14-.05.24-.07.06,0,.19.06.22.15.05.14.09.41.09.56,0,.24-.02.31-.31.38-.18.05-.37.22-.41-.43ZM129.66,149.52c-.13-.01-.23-.02-.31-.05-.13-.04-.28-.06-.34-.17-.04-.08-.04-.54-.04-.65-.04-1.13-.11-2.19-.16-3.31,0-.1-.05-.49.03-.65.06-.12.14-.11.19-.11.28,0,.28.59.31.72.1.48.44,3.86.45,4.01,0,.18.01.23-.13.21ZM130.6,149.65c-.2-.01-.41-.02-.49-.11-.02-.02-.04-.05-.05-.09-.02-.06-.03-.14-.04-.2-.06-.32-.47-3.7-.59-4.66-.02-.13.09-.17.14-.03.17.53,1.1,4.41,1.19,4.97.02.11-.08.11-.15.1ZM131.42,149.72c-.09,0-.16,0-.32-.06-.1-.03-.13-.17-.15-.27-.31-1.25-1.03-4.05-1.17-4.68-.08-.37-.21-.63.18-.8.52-.22,1.2-.56,1.7-.84.11-.06.29-.18.3-.26.01-.25-.27-.08-.33-.18-.17-.3-.34-.6-.52-.91-.05-.09-.05-.13.06-.13.8-.03,1.53-.03,2.26,0,.46.02.42.39.35.69-.21.86-1.75,6.05-1.9,6.49-.1.3-.3.96-.46.95ZM132.79,149.55c-.06.16-.1.27-.23.28-.21.01-.64,0-.69-.13-.06-.16,0-.3.07-.49.15-.43,1.95-6.55,2.09-6.94.05-.13.09-.66.42-.65.43,0,.24.38.24.51-.02.35-.22,1.1-.3,1.44-.31,1.25-.63,2.5-.95,3.75-.12.49-.26.97-.4,1.45-.07.26-.18.58-.25.78ZM134.74,149.66c0,.24-.07.36-.25.36-.06,0-1,0-1.16-.16-.16-.17-.13-.36-.08-.67.03-.19.08-.41.15-.64.27-.93,1.03-4,1.21-4.74.04-.17.1-.14.07.21.02.36,0,.78.01,1.14,0,1.12,0,2.21.04,3.33.01.39.01.78,0,1.17ZM140.51,147.39c0,.49.02.96.02,1.46,0,.56-.11.63-.47.72-.27.07-.61.21-.78.11-.12-.07-.09-.28-.06-.48.15-.88.99-5.43,1.11-6.12.02-.16.11-.46.12-.24,0,.58.06,3.61.05,4.55ZM137.13,141.23c.09-.03.33-.02.4.01.58.19,1.08.32,1.63.57.22.1.56.17.46.64-.25,1.14-.62,2.25-.97,3.36-.03.1-.11.36-.17.6-.04.14-.13.37-.27-.08-.23-.81-1.4-4.65-1.47-4.82-.16-.42-.1-.65.37-.89.16-.08.11-.05.26-.14,0,0-.17.41-.29.57-.03.03-.05.05-.07.06-.27.06-.12.21.11.15ZM140.03,142.31c.09-.35.26-.25.19.09-.1.56-1.14,6.28-1.35,7.12-.08.31-.54.43-.96.47q-.16.02-.1-.2c.63-2.13,1.64-5.5,2.22-7.49ZM140.39,134.94c.02.3.06,3.93.06,4.58,0,.28-.34.54-.56.73-.19.16-.59.04-.52-.22,0,0,.86-4.91.94-5.37.03-.19.08-.08.08.27ZM138.23,139.38c.24-.17.34-.09.34-.37,0-.18-.28-.04-.15-.25l.31-.67c.35-.68.76-1.5.99-2.02.09-.21.1-.12.07.1-.01.1-.63,3.83-.69,3.97-.06.13-.11.42-.8.58-.25.06-.58.18-.83.24-.1.03-.04-.05-.04-.05,0,0,.63-1.4.8-1.52ZM135.6,135.27c.11.16,1.64,2.42,2.33,3.66.11.19-.1.33-.26.39-.27.1-.31.08-.59.18-.37.14-.54-.16-.65-.55-.12-.47-1.04-3.43-1.01-3.61.03-.21.1-.17.17-.06ZM134.92,132.34c-.03-.52-.06-1-.07-1.52,0-.56-.01-.71.1-.51.47.75.88,1.4,1.27,2.06.2.34-.12.32-.24.33-.24.03-.51.07-.7.07-.33,0-.35-.03-.37-.44ZM135.19,139.85c0-.86-.07-2.33-.12-3.39-.05-1.23.02-1.07.21-.41.21.62.71,2.49.87,3.05.07.22.23.65.06.71-.23.09-.56.16-.77.24-.15.06-.24,0-.25-.21ZM136.88,150.08c-.3.02-.69-.02-.98-.02-.24,0-.3-.27-.31-.5-.03-.36-.14-2.92-.15-3.83-.01-.75-.03-1.43-.08-2.18-.01-.15-.1-1.05.03-1.05.12-.04.32.84.34.92.22.85.42,1.71.63,2.57.29,1.16.58,2.33.84,3.5.1.44.11.55-.32.59ZM137.45,149.24c-.2-.83-1.86-7.01-1.86-7.5,0-.16.17-.37.5-.55.25-.18.33.29.38.43.39,1.2.76,2.41,1.13,3.61.19.6.34,1.22.52,1.82.06.19.05.33-.02.55-.04.16-.35,1.31-.44,1.52-.07.15-.2.19-.2.12ZM139.08,150.95c-.81.12-1.22-.02-1.47-.53.87-.18,1.74-.36,2.65-.54,0,.53-.46.97-1.18,1.08ZM140.33,152.65c-.2.02-.34,0-.39-.33-.05-.26.03-.44.34-.44.21-.05.26.19.3.4.02.2-.12.36-.25.37ZM140.61,134.28c0-.1.04-.57.18-.23.07.11,1.03,2.35,1.36,3.13.12.29.09.49-.15.78-.34.41-.64.73-.96,1.08-.15.18-.22.1-.22-.12-.03-.49-.16-3.79-.21-4.65ZM140.85,140.05c-.01-.16.12-.38.28-.59.38-.51.8-.98,1.27-1.51.06-.06.1-.02.12.02.3.66.58,1.23.82,1.82.18.44-.07.8-.52.79-.4,0-.81-.02-1.21-.06-.44-.04-.75-.2-.77-.47ZM141.4,148.46c-.1.03-.23,0-.24-.4-.03-.78-.11-3.2-.13-3.96,0-.05.27,1.07.36,1.41.13.48.59,2.19.62,2.54.02.24-.25.29-.61.41ZM143.24,147.7c-.08.18-.48.3-.61.35-.3.1-.34-.16-.54-.89-.35-1.25-.65-2.5-.97-3.75-.07-.29-.11-.58-.16-.88-.07-.27.12-.31.22-.09.18.31,1.85,4.41,1.98,4.75.07.19.13.38.08.5ZM144.34,147.41c-.52.2-.64.21-.75-.03-.61-1.38-1.54-3.52-2.11-4.9-.27-.65.16-.71.3-.46.44.76,2.97,4.4,3.12,4.59.34.44-.2.65-.57.79ZM151.72,144.37c0,.15-.04.44-.2.44h-1.66c-.46,0-1,.18-1.23.29-.5.24-.91.51-1.67.89-.28.14-.37.18-.64.3-.12.05-.27.14-.43.2.55-1.13,1.4-2.26,2.19-2.36.35-.04.74.34,1.07.32.58-.03,1.07-.47,1.42-.79.56-.51,1.1-.45,1.15-.33.04.1,0,.49.01,1.04ZM151.74,142.49c-.55-.2-1.32.26-1.95.81-.64.55-.8.31-1.75-.06-.96-.36-2.08,1.12-2.08,1.12,0,0-.29-2.42.15-3.5.47-.56,2.06-1.53,2.24-.39.14.94.98,1.13,1.35,1.17.97.12,2.06-.89,2.06-.89,0,0,.03,1.26,0,1.74Z"/>
        </g>
      </g>
      <g>
        <path class="cls-1" d="M143.18,86.52l-.04.16c.52.37.74.96.63,1.65-.16.04-.3.12-.41.24-.46-.32-.7-.82-.64-1.28-.01,0-.16-.05-.16-.05l-.82,2.71s.12.04.13.04c.27-.4.72-.64,1.25-.64.01.08.03.15.06.22.02.04.04.07.06.11-.49.89-1.02,1.36-2.08,1.17-1.27-.23-1.6-1.3-1.3-1.86.21-.41.43-.47.68-.38.25.09.39.44.18.96.48-.09.97-.72,1.02-1.28.05-.56-.43-.94-.83-.98-.38-.04-.73.09-1.05.49.54-1.11.7-1.79.08-2.7-.83.52-1.02,1.25-.85,2.61-.38-1.2-1.4-1.27-1.85-.54-.45.73.11,1.6.42,1.89-.16-.57.08-1,.59-.89.52.11.52,1.19-.14,1.74-.66.55-1.68.46-2.34-.03-.55-.41-.79-.86-.92-1.68.08-.06.15-.14.2-.23.72.14,1.25.6,1.33,1.16.01,0,.15,0,.15,0l.1-3.1s-.18,0-.19,0c-.11.54-.64,1.01-1.33,1.14-.06-.15-.16-.27-.29-.36.17-.76.65-1.32,1.26-1.43v-.18h-3.58v.18c.61.1,1.1.67,1.26,1.43-.12.09-.23.22-.29.36-.7-.13-1.22-.6-1.33-1.14-.01,0-.19,0-.19,0l.1,3.1s.14,0,.15,0c.08-.56.61-1.02,1.33-1.16.05.09.12.16.2.23-.13.82-.37,1.27-.92,1.68-.66.49-1.67.58-2.34.03-.66-.55-.66-1.63-.14-1.74.52-.11.75.32.59.89.31-.29.87-1.16.42-1.89-.45-.73-1.47-.66-1.85.54.17-1.36-.02-2.09-.85-2.61-.61.91-.46,1.6.08,2.7-.32-.4-.66-.53-1.05-.49-.4.04-.88.42-.83.98.05.56.55,1.19,1.02,1.28-.22-.52-.07-.87.18-.96.25-.09.47-.03.68.38.29.56-.03,1.63-1.3,1.86-1.06.19-1.59-.28-2.08-1.17.02-.03.04-.07.06-.11.03-.07.05-.15.06-.22.53,0,.97.24,1.25.64.01,0,.13-.04.13-.04l-.82-2.71s-.15.04-.16.05c.06.46-.19.96-.64,1.28-.11-.12-.25-.2-.41-.24-.1-.69.12-1.27.63-1.65l-.04-.16-2.44.78.04.13c.38.06.68.16,1.11,1.06-.09.08-.17.18-.22.29-.09.2-.1.44-.03.65.12.37.45.63.82.63.01,0,.02,0,.03,0,.2.6.43,1.34.7,2.27l-.45.9-.15.3.28.18.86.54c.06.24.13.48.2.73-.12.06-.24.12-.35.19-.57.32-.76,1.05-.44,1.61.16.29,3.67,2.25,8.63,2.24,2.24.08,4.76-.26,6.9-.93.79-.34,2.27-1.28,2.29-1.31.32-.57.13-1.29-.44-1.61-.11-.07-.23-.13-.35-.19.07-.25.14-.5.2-.73l.86-.54.28-.18-.15-.3-.45-.9c.27-.92.5-1.66.7-2.27.01,0,.02,0,.03,0,.37,0,.7-.25.82-.63.07-.22.06-.45-.03-.65-.05-.11-.13-.21-.22-.29.43-.9.73-1.01,1.11-1.06l.04-.13-2.44-.78ZM124.85,89.7c-.26.08-.54-.08-.64-.37-.09-.29.04-.59.3-.67.26-.08.54.08.64.37s-.04.59-.3.67ZM137.18,91.93c.1-.54.81-.85,1.58-.71.77.15,1.3.7,1.2,1.24-.1.54-.81.85-1.58.71-.77-.15-1.3-.7-1.2-1.24ZM134.31,86.97c.3,0,.55.25.55.55s-.25.55-.55.55-.55-.25-.55-.55.25-.55.55-.55ZM134.31,90.52l1.77,1.25-1.77,1.25-1.77-1.25,1.77-1.25ZM129.87,91.23c.77-.15,1.47.17,1.58.71.1.54-.43,1.09-1.2,1.24-.77.15-1.47-.17-1.58-.71-.1-.54.43-1.09,1.2-1.24ZM125.34,93.39l.61-1.22,1.66.59-1.11,1.37-1.15-.73ZM142.49,96.03c.91-.27.76,1.1-.07.65.21.3,0,.5-.36.41-.01.02-.02.04-.03.06,0,.02-.02.04-.02.07-.02,0-.05-.02-.07-.03-.21.24-.44.46-.81.44-.05-.04-.12-.08-.19-.13-.31.23-.54.52-.98.56v-.31c-.44.26-.83.56-1.33.65-.03-.09-.05-.18-.08-.26-.5.19-.93.51-1.53.5.02-.12.03-.22.05-.32-.45.15-.91.52-1.45.39-.1-.13.07-.18.03-.28-.46.14-.93.43-1.49.28.02-.09.03-.16.05-.26-.57.08-1.08.36-1.68.21.04-.11.07-.2.11-.32-.57.11-1.09.34-1.67.1.09-.08.17-.15.24-.22-.46-.15-1.06.17-1.58-.08.06-.08.12-.15.17-.22-.33-.22-.83.13-1.23-.05.08-.11.14-.19.2-.27-.46-.06-1.01.14-1.47-.09,0-.08,0-.15-.02-.23-.11,0-.23,0-.34,0,.02-.01.04-.02.06-.03.06-.04.13-.07.19-.1,0,0,0,0,0,0,0,0-.02-.02-.03-.03,0,0,0,0-.01,0-.01,0-.03-.02-.04-.02.5-.05.92.36,1.43.27-.07-.25-.41-.22-.5-.51,4-1.36,8.96-1.67,12.76.21-.11.1-.24.21-.37.32.33-.1.82-.06,1-.36-.35-.25-.66-.62-1.05-.81-.02.08-.03.17-.05.27-.53-.08-.79-.47-1.24-.7,0,.11-.02.2-.02.29-.45,0-.74-.34-1.12-.46-.04.07-.08.13-.11.19-.42-.04-.78-.2-1.11-.42-.04.07-.07.13-.11.21-.5.06-.91-.2-1.36-.35,0,.1.02.17.02.26-.53-.04-1.03-.11-1.52-.3-.01.09-.02.15-.03.22-.47.16-.89-.13-1.35-.15.03.1.06.18.08.27-.41.16-.79.02-1.17-.02.01.08.02.14.03.2-.51.21-.95-.06-1.45-.02.04.08.08.16.13.26-.4.15-.79.09-1.18.04,0,.09,0,.17.01.24-.35.18-.7.05-1.07.03.08.12.12.18.18.29-.18.33-.9.3-.89.53-.02,0-.03-.01-.05-.01-.02,0-.08,0,0,0-.02,0-.03,0-.05,0-.07,0-.13,0-.2,0,0,0,0,0,0,0-.1.08-.32.11-.49.08-.07-.03-.18-.4-.04-.51-.82.31-.83-.54-.11-.72-1.18.17.41-1.04.33-.4.58-.91,1.31-.96,1.02-.42.87-.94,1.35-.93.96-.27.95-.93,1.53-.93,1.09-.25,1.03-1,1.85-.92,1.49-.3,1.17-.91,1.6-.71,1.25-.2,1.12-.84,1.91-.54,1.29-.03,1.67-.91,1.95-.49,1.47-.05,1.53-.72,1.89-.34,1.41.03,1.75-.55,2.13-.13,1.36.23,1.71-.46,1.95-.06,1.37.29,1.5-.37,1.83.02,1.15.34,1.28-.27,1.68.09,1.16.42,1.58,0,1.79.45,1.03.76ZM143.28,93.39l-1.15.73-1.11-1.37,1.66-.59.61,1.22ZM144.4,89.33c-.09.29-.38.45-.64.37-.26-.08-.39-.39-.3-.67.09-.29.38-.45.64-.37.26.08.39.39.3.67Z"/>
        <path class="cls-1" d="M134.48,94.31c.21-.1.44-.32.46-.58-.24.23-1.01.5-1.78.77.81.11,1.53.44,1.72.68,0-.26-.19-.5-.39-.6.48.1.74.04,1.06-.08-.29-.17-.57-.28-1.06-.19Z"/>
        <path class="cls-1" d="M130.44,94.7c.18-.15.36-.41.31-.67-.18.27-.87.72-1.56,1.15.82-.07,1.59.08,1.83.28-.05-.26-.3-.44-.52-.5.49,0,.73-.13,1.02-.31-.32-.1-.62-.15-1.07.06Z"/>
        <path class="cls-1" d="M127.09,95.64c.14-.18.25-.48.15-.72-.12.31-.69.9-1.27,1.47.78-.25,1.45-.32,1.82-.24-.11-.24-.37-.27-.6-.27.47-.12.68-.29.92-.53-.34-.03-.64,0-1.03.3Z"/>
        <path class="cls-1" d="M141.82,96.72c.12-.23.02-.46-.11-.65.38.3.65.36.99.4-.19-.28-.39-.5-.87-.63.23,0,.53-.05.66-.28-.31.1-1.12-.03-1.93-.14.68.46,1.2.99,1.27,1.3Z"/>
        <path class="cls-1" d="M139.06,94.26c-.28.17-1.1.26-1.91.35.76.29,1.39.77,1.52,1.05.07-.25-.08-.53-.25-.68.44.21.71.2,1.05.16-.25-.23-.49-.4-.99-.42.22-.05.5-.21.57-.46Z"/>
        <path class="cls-1" d="M141.38,84.82c-.69-.48-1.35-.57-1.93-.62-.53-.05-.87-.22-1.24-.8-.37-.58-1.06-.9-1.75-.9-.32,0-.37.28,0,.28.41,0,1.17.2,1.52.88.26.51.37,1,1.52.96.82-.03,2.16.09,2.85,1.93.09.25.36.23.2-.15-.11-.25-.45-1.08-1.15-1.57Z"/>
        <path class="cls-1" d="M130.41,83.4c-.37.58-.71.76-1.24.8-.58.05-1.24.14-1.93.62-.71.49-1.04,1.32-1.15,1.57-.16.38.11.4.2.15.69-1.83,2.03-1.96,2.85-1.93,1.15.04,1.26-.45,1.52-.96.35-.68,1.11-.88,1.52-.88.36,0,.31-.28,0-.28-.69,0-1.38.32-1.75.9Z"/>
        <path class="cls-1" d="M142.99,86.01l.88.28c-1.4-2.94-3.95-5.15-7.03-5.94-.08.2-.14.43-.21.66,2.7.68,4.99,2.52,6.36,5Z"/>
        <path class="cls-1" d="M124.75,86.3l.88-.28c1.37-2.48,3.65-4.32,6.36-5-.06-.23-.13-.45-.21-.66-3.08.79-5.64,3-7.03,5.94Z"/>
        <circle class="cls-1" cx="139.88" cy="80.35" r=".49"/>
        <circle class="cls-1" cx="137.52" cy="79.34" r=".49"/>
        <circle class="cls-1" cx="138.73" cy="79.78" r=".49"/>
        <circle class="cls-1" cx="143.68" cy="83.77" r=".49"/>
        <circle class="cls-1" cx="140.96" cy="81.05" r=".49"/>
        <circle class="cls-1" cx="144.97" cy="86" r=".49"/>
        <circle class="cls-1" cx="144.39" cy="84.86" r=".49"/>
        <circle class="cls-1" cx="142.87" cy="82.77" r=".49"/>
        <circle class="cls-1" cx="141.96" cy="81.86" r=".49"/>
        <circle class="cls-1" cx="125.75" cy="82.77" r=".49"/>
        <circle class="cls-1" cx="129.89" cy="79.78" r=".49"/>
        <circle class="cls-1" cx="124.94" cy="83.77" r=".49"/>
        <circle class="cls-1" cx="131.1" cy="79.34" r=".49"/>
        <circle class="cls-1" cx="124.23" cy="84.86" r=".49"/>
        <circle class="cls-1" cx="126.66" cy="81.86" r=".49"/>
        <circle class="cls-1" cx="127.66" cy="81.05" r=".49"/>
        <circle class="cls-1" cx="128.74" cy="80.35" r=".49"/>
        <circle class="cls-1" cx="123.65" cy="86" r=".49"/>
        <path class="cls-1" d="M135.15,84.78h.65c0-2.05.3-3.83.83-5.01.07-.16,0-.36-.16-.43-.04-.02-.09-.03-.13-.03-.12,0-.24.07-.3.19-.77,1.7-.89,4.03-.89,5.28Z"/>
        <path class="cls-1" d="M132.82,84.78h.65c0-1.25-.12-3.58-.89-5.28-.05-.12-.17-.19-.3-.19-.05,0-.09,0-.13.03-.16.07-.23.27-.16.43.54,1.18.83,2.95.83,5.01Z"/>
        <circle class="cls-1" cx="134.31" cy="84.25" r=".53"/>
        <circle class="cls-1" cx="134.31" cy="82.93" r=".53"/>
        <circle class="cls-1" cx="134.31" cy="81.61" r=".53"/>
        <path class="cls-1" d="M134.31,79.94c-.29,0-.53.24-.53.53,0,.15.06.28.15.37.11-.06.24-.09.37-.09s.26.03.37.09c.1-.1.15-.23.15-.37,0-.29-.24-.53-.53-.53Z"/>
        <path class="cls-1" d="M134.31,78.89c-.29,0-.53.24-.53.53,0,.12.04.23.11.32.12-.07.27-.11.42-.11s.29.04.42.11c.07-.09.11-.2.11-.32,0-.29-.24-.53-.53-.53Z"/>
        <path class="cls-1" d="M133.7,75.35c.06.1.14.18.23.23-.14.53-.45.92-.82.99v.17h.86s-.08.07-.11.11c-.73.2-1.26.86-1.26,1.65,0,.7.43,1.31,1.04,1.57-.16-.17-.26-.4-.26-.65,0-.44.3-.81.71-.91-.46.02-.87.1-1.17.22-.01-.08-.02-.16-.02-.24,0-.11.02-.22.04-.33.28-.11.66-.19,1.08-.21,0-.45.02-.86.06-1.21h.47c.03.34.05.76.06,1.21.42.02.8.1,1.08.21.03.11.04.22.04.33,0,.08,0,.16-.02.24-.3-.12-.71-.2-1.17-.22.41.1.71.47.71.91,0,.25-.1.48-.26.65.61-.26,1.04-.87,1.04-1.57,0-.79-.53-1.45-1.26-1.65-.03-.04-.07-.08-.11-.11h.86v-.17c-.37-.07-.68-.46-.82-.99.1-.06.18-.14.23-.23.53.14.92.45.99.82h.17v-2.39h-.17c-.07.37-.46.68-.99.82-.06-.1-.14-.18-.23-.23.14-.53.45-.92.82-.99v-.17h-2.39v.17c.37.07.68.46.82.99-.1.06-.18.14-.23.23-.53-.14-.92-.45-.99-.82h-.17v2.39h.17c.07-.37.46-.68.99-.82ZM134.31,74.55c.23,0,.42.19.42.42s-.19.42-.42.42-.42-.19-.42-.42.19-.42.42-.42Z"/>
      </g>
      <path class="cls-1" d="M107.37,91.4c-.26.15-.01.55.24.39.25-.15,0-.54-.24-.39Z"/>
      <path class="cls-1" d="M107.52,92.05c-.26.15-.01.55.24.39.25-.15,0-.54-.24-.39Z"/>
      <path class="cls-1" d="M107.31,89.79s.03-.04.04-.06l.53.18-.12-.72-.46.23s-.04-.03-.06-.04l.1-.65c-.18.03-.53.09-.7.11l.3.58s-.03.04-.04.06h0s-.51-.07-.51-.07l.12.72.45-.34s.04.03.06.04c0,0-.14.89-.14.89h0c-.08.79,1.2.58.87-.15,0,0-.42-.8-.42-.8Z"/>
      <path class="cls-1" d="M104.8,92.12c-.32-.08-.44.43-.12.5.33.08.44-.43.12-.5Z"/>
      <path class="cls-1" d="M104.61,92.76c-.32-.08-.44.43-.12.5.33.08.44-.43.12-.5Z"/>
      <path class="cls-1" d="M106.14,90.76c-.32-.08-.44.43-.12.5.33.08.44-.43.12-.5Z"/>
      <path class="cls-1" d="M105.14,91.57c-.32-.08-.44.43-.12.5.33.08.44-.43.12-.5Z"/>
      <path class="cls-1" d="M110.57,92.58c.1.26.12.38.09.56-.1-.07-.21-.21-.31-.44l-.12.88c.14-.13.24-.22.38-.24-.18.82-.91.99-1.02.35.01-.26.26-.37.44-.1.16-.52-.27-.6-.5-.42.33-.46.32-.81-.07-1.18-.39.41-.34.74-.06,1.18-.31-.25-.68-.03-.46.42.14-.32.41-.18.42.1-.11.74-1.44.67-1.41-.14.13-.05.4.04.66.3l-.07-.91c-.19.28-.39.36-.62.4.04-.25.33-.71.33-.71-.28.04-.84.14-1.12.18,0,0,.42.34.54.57-.23.03-.45.02-.72-.18l.22.88c.16-.33.39-.5.53-.5.29.76-.95,1.25-1.29.58-.08-.27.13-.49.37-.23.07-.5-.36-.59-.57-.26.12-.5.06-.84-.43-1.1-.25.47-.15.81.31,1.14-.28-.1-.65.11-.34.55.07-.32.35-.29.44-.05.1.64-.64.71-1.08-.01.14-.02.27.03.44.11l-.39-.8c-.03.25-.08.42-.15.51-.09-.16-.1-.29-.09-.56l-.49.27c.34.33.69.82,1.07,1.72.87-.55,4.04-1.12,5.15-.84.07-.97.25-1.54.47-1.97l-.55-.1Z"/>
      <path class="cls-1" d="M106.39,91.33c-.7.31-1.22.96-1.43,1.76l.2-.1c.22-.68.69-1.23,1.31-1.5-.03-.06-.05-.11-.08-.16Z"/>
      <path class="cls-1" d="M106.58,91.12c-.06-.1-.21,0-.15.09.18.29.32.74.39,1.27l.17-.02c-.04-.32-.15-.92-.42-1.34Z"/>
      <path class="cls-1" d="M105.6,91.1c-.32-.08-.44.43-.12.5.33.08.44-.43.12-.5Z"/>
      <path class="cls-1" d="M110.2,91.15c-.28.18.01.62.29.43.28-.18-.01-.61-.29-.43Z"/>
      <path class="cls-1" d="M110.61,91.68c-.28.18.01.62.29.43.28-.18-.01-.61-.29-.43Z"/>
      <path class="cls-1" d="M108.47,90.35c-.28.18.01.62.29.43.28-.18-.01-.61-.29-.43Z"/>
      <path class="cls-1" d="M109.69,90.76c-.28.18.01.62.29.43.28-.18-.01-.61-.29-.43Z"/>
      <path class="cls-1" d="M108.44,90.97c0,.06-.01.12-.02.18.67.03,1.3.38,1.75.94l.22.03c-.48-.68-1.19-1.11-1.96-1.15Z"/>
      <path class="cls-1" d="M108.31,90.86c.02-.11-.15-.14-.17-.03-.1.48,0,1.08.08,1.4l.17-.04c-.12-.52-.15-.99-.08-1.33Z"/>
      <path class="cls-1" d="M109.1,90.48c-.28.18.01.62.29.43.28-.18-.01-.61-.29-.43Z"/>
    </g>
  </g>
</svg>