<?xml version="1.0" encoding="UTF-8"?><svg id="Layer_1" xmlns="http://www.w3.org/2000/svg" viewBox="0 0 661.17 108.89"><defs><style>.cls-1{fill:#fff;}.cls-2{fill:#ffcf06;}</style></defs><path class="cls-1" d="M211.44,78.65L232.15,2.91h28.01l-35.01,104.02h-27.43L163,2.91h27.79l20.65,75.74h0Z"/><path class="cls-1" d="M314.94,106.94h-25V2.91h25v104.02h0Z"/><path class="cls-1" d="M406.51,79.29c0-3.67-1.29-6.52-3.89-8.58-2.6-2.04-7.15-4.17-13.68-6.36-6.52-2.19-11.86-4.31-16.01-6.36-13.48-6.62-20.22-15.72-20.22-27.29,0-5.76,1.68-10.84,5.04-15.25,3.36-4.4,8.11-7.84,14.26-10.29s13.05-3.68,20.72-3.68,14.18,1.34,20.12,4c5.94,2.66,10.53,6.47,13.83,11.4,3.28,4.93,4.93,10.57,4.93,16.9h-25c0-4.23-1.29-7.53-3.89-9.86-2.6-2.33-6.11-3.5-10.53-3.5s-8.01.98-10.61,2.96-3.89,4.49-3.89,7.54c0,2.66,1.43,5.08,4.29,7.25,2.86,2.17,7.88,4.41,15.08,6.72,7.2,2.31,13.1,4.8,17.72,7.46,11.24,6.48,16.86,15.41,16.86,26.79,0,9.1-3.43,16.24-10.29,21.43s-16.27,7.79-28.22,7.79c-8.43,0-16.06-1.51-22.9-4.53-6.83-3.03-11.98-7.16-15.43-12.43-3.46-5.26-5.18-11.32-5.18-18.18h25.15c0,5.57,1.44,9.68,4.32,12.32,2.88,2.64,7.56,3.97,14.04,3.97,4.14,0,7.42-.9,9.83-2.67,2.41-1.79,3.6-4.3,3.6-7.54h-.02Z"/><path class="cls-1" d="M546.59,22.27h-31.23v84.67h-25.08V22.27h-30.65V2.91h86.94v19.37s.01,0,.01,0Z"/><path class="cls-1" d="M628.16,87.5h-34.36l-6,19.43h-26.79L599.16,2.91h23.58l38.43,104.02h-26.94l-6.07-19.43h0ZM599.8,68.15h22.36l-11.22-36.08-11.14,36.08h0Z"/><path class="cls-1" d="M54.44,0C24.37,0,0,24.37,0,54.44c0,5.26.75,10.34,2.14,15.15l8.72-2.51c-1.16-4.01-1.79-8.26-1.79-12.64,0-25.06,20.31-45.37,45.37-45.37s45.37,20.31,45.37,45.37c0,23.49-17.85,42.81-40.73,45.14v-8.67c4.94-.63,9.58-2.23,13.71-4.62l-6.74-6.74c-3.53,1.64-7.46,2.56-11.61,2.56-15.28,0-27.66-12.38-27.66-27.66s12.38-27.66,27.66-27.66,27.66,12.38,27.66,27.66c0,3.92-.82,7.65-2.29,11.03l6.79,6.79c2.93-5.28,4.61-11.35,4.61-17.82,0-20.3-16.46-36.76-36.76-36.76S17.69,34.15,17.69,54.45c0,18.79,14.1,34.27,32.29,36.48v8.67c-13.51-1.32-25.27-8.56-32.67-19.1l-7.42,5.21c9.85,14.02,26.14,23.18,44.57,23.18,30.07,0,54.44-24.37,54.44-54.44S84.51,0,54.44,0Z"/><path class="cls-2" d="M70.26,64.23c1.78-2.87,2.82-6.25,2.82-9.87,0-10.33-8.38-18.71-18.71-18.71s-18.71,8.38-18.71,18.71,8.38,18.71,18.71,18.71c3.79,0,7.32-1.13,10.27-3.07l13,13c2.09-1.7,3.99-3.62,5.66-5.73l-13.04-13.04ZM54.33,65.94c-6.42,0-11.62-5.2-11.62-11.62s5.2-11.62,11.62-11.62,11.62,5.2,11.62,11.62-5.2,11.62-11.62,11.62Z"/></svg>