<?xml version="1.0" encoding="UTF-8"?><svg id="Layer_1" xmlns="http://www.w3.org/2000/svg" viewBox="0 0 498.17 106.88"><defs><style>.cls-1{fill:#fff;}</style></defs><path class="cls-1" d="M48.44,77.16L69.15,1.43h28.01l-35.01,104.02h-27.43L0,1.43h27.79l20.65,75.74h0Z"/><path class="cls-1" d="M151.94,105.46h-25V1.43h25v104.02h0Z"/><path class="cls-1" d="M243.51,77.8c0-3.67-1.29-6.52-3.89-8.58-2.6-2.04-7.15-4.17-13.68-6.36-6.52-2.19-11.86-4.31-16.01-6.36-13.48-6.62-20.22-15.72-20.22-27.29,0-5.76,1.68-10.84,5.04-15.25,3.36-4.4,8.11-7.84,14.26-10.29s13.05-3.68,20.72-3.68,14.18,1.34,20.12,4c5.94,2.66,10.53,6.47,13.83,11.4,3.28,4.93,4.93,10.57,4.93,16.9h-25c0-4.23-1.29-7.53-3.89-9.86-2.6-2.33-6.11-3.5-10.53-3.5s-8.01.98-10.61,2.96-3.89,4.49-3.89,7.54c0,2.66,1.43,5.08,4.29,7.25,2.86,2.17,7.88,4.41,15.08,6.72,7.2,2.31,13.1,4.8,17.72,7.46,11.24,6.48,16.86,15.41,16.86,26.79,0,9.1-3.43,16.24-10.29,21.43s-16.27,7.79-28.22,7.79c-8.43,0-16.06-1.51-22.9-4.53-6.83-3.03-11.98-7.16-15.43-12.43-3.46-5.26-5.18-11.32-5.18-18.18h25.15c0,5.57,1.44,9.68,4.32,12.32,2.88,2.64,7.56,3.97,14.04,3.97,4.14,0,7.42-.9,9.83-2.67,2.41-1.79,3.6-4.3,3.6-7.54h-.02Z"/><path class="cls-1" d="M383.59,20.79h-31.23v84.67h-25.08V20.79h-30.65V1.43h86.94v19.37s.01,0,.01,0Z"/><path class="cls-1" d="M465.16,86.02h-34.36l-6,19.43h-26.79L436.16,1.43h23.58l38.43,104.02h-26.94l-6.07-19.43h0ZM436.8,66.66h22.36l-11.22-36.08-11.14,36.08h0Z"/></svg>