<?xml version="1.0" encoding="UTF-8"?>
<svg id="Layer_1" data-name="Layer 1" xmlns="http://www.w3.org/2000/svg" viewBox="0 0 665.17 128">
  <defs>
    <style>
      .cls-1 {
        fill: #ffcf06;
      }

      .cls-2 {
        fill: #fff;
      }
    </style>
  </defs>
  <g>
    <path class="cls-2" d="M224.62,85.46l18.74-68.52h25.34l-31.67,94.11h-24.82l-31.41-94.11h25.14l18.68,68.52Z"/>
    <path class="cls-2" d="M318.26,111.06h-22.62V16.94h22.62v94.11Z"/>
    <path class="cls-2" d="M401.11,86.04c0-3.32-1.17-5.9-3.52-7.76-2.35-1.85-6.47-3.77-12.38-5.75-5.9-1.98-10.73-3.9-14.48-5.75-12.2-5.99-18.29-14.22-18.29-24.69,0-5.21,1.52-9.81,4.56-13.8,3.04-3.98,7.34-7.09,12.9-9.31,5.56-2.22,11.81-3.33,18.75-3.33s12.83,1.21,18.2,3.62c5.37,2.41,9.53,5.85,12.51,10.31,2.97,4.46,4.46,9.56,4.46,15.29h-22.62c0-3.83-1.17-6.81-3.52-8.92-2.35-2.11-5.53-3.17-9.53-3.17s-7.25.89-9.6,2.68c-2.35,1.79-3.52,4.06-3.52,6.82,0,2.41,1.29,4.6,3.88,6.56,2.59,1.96,7.13,3.99,13.64,6.08,6.51,2.09,11.85,4.34,16.03,6.75,10.17,5.86,15.25,13.94,15.25,24.24,0,8.23-3.1,14.69-9.31,19.39-6.21,4.7-14.72,7.05-25.53,7.05-7.63,0-14.53-1.37-20.72-4.1-6.18-2.74-10.84-6.48-13.96-11.25-3.13-4.76-4.69-10.24-4.69-16.45h22.75c0,5.04,1.3,8.76,3.91,11.15,2.61,2.39,6.84,3.59,12.7,3.59,3.75,0,6.71-.81,8.89-2.42,2.18-1.62,3.26-3.89,3.26-6.82Z"/>
    <path class="cls-2" d="M527.84,34.46h-28.25v76.6h-22.69V34.46h-27.73v-17.52h78.66v17.52Z"/>
    <path class="cls-2" d="M601.64,93.47h-31.09l-5.43,17.58h-24.24l34.52-94.11h21.33l34.77,94.11h-24.37l-5.49-17.58ZM575.98,75.96h20.23l-10.15-32.64-10.08,32.64Z"/>
  </g>
  <g>
    <path class="cls-2" d="M74.77,9.56c-30.07,0-54.44,24.37-54.44,54.44,0,5.26.75,10.34,2.14,15.15l8.72-2.51c-1.16-4.01-1.79-8.26-1.79-12.64,0-25.06,20.31-45.37,45.37-45.37s45.37,20.31,45.37,45.37c0,23.49-17.85,42.81-40.73,45.14v-8.67c4.94-.63,9.58-2.23,13.71-4.62l-6.74-6.74c-3.53,1.64-7.46,2.56-11.61,2.56-15.28,0-27.66-12.38-27.66-27.66s12.38-27.66,27.66-27.66,27.66,12.38,27.66,27.66c0,3.92-.82,7.65-2.29,11.03l6.79,6.79c2.93-5.28,4.61-11.35,4.61-17.82,0-20.3-16.46-36.76-36.76-36.76s-36.76,16.46-36.76,36.76c0,18.79,14.1,34.27,32.29,36.48v8.67c-13.51-1.32-25.27-8.56-32.67-19.1l-7.42,5.21c9.85,14.02,26.14,23.18,44.57,23.18,30.07,0,54.44-24.37,54.44-54.44S104.84,9.56,74.77,9.56Z"/>
    <path class="cls-1" d="M90.59,73.79c1.78-2.87,2.82-6.25,2.82-9.87,0-10.33-8.38-18.71-18.71-18.71s-18.71,8.38-18.71,18.71,8.38,18.71,18.71,18.71c3.79,0,7.32-1.13,10.27-3.07l13,13c2.09-1.7,3.99-3.62,5.66-5.73l-13.04-13.04ZM74.66,75.5c-6.42,0-11.62-5.2-11.62-11.62s5.2-11.62,11.62-11.62,11.62,5.2,11.62,11.62-5.2,11.62-11.62,11.62Z"/>
  </g>
</svg>

